<svg id="svg" version="1.1" xmlns="http://www.w3.org/2000/svg" xmlns:xlink="http://www.w3.org/1999/xlink" width="400" height="491.2280701754386" viewBox="0, 0, 400,491.2280701754386"><g id="svgg"><path id="path0" d="M155.501 0.233 C 155.373 0.360,154.218 0.520,152.934 0.587 C 151.650 0.654,150.600 0.743,150.600 0.784 C 150.600 0.826,150.176 0.938,149.658 1.034 C 149.140 1.129,148.264 1.564,147.711 1.998 C 147.158 2.433,146.538 2.685,146.332 2.558 C 146.126 2.431,145.607 2.731,145.179 3.224 C 144.750 3.718,144.400 3.998,144.400 3.846 C 144.400 3.693,144.006 3.936,143.525 4.384 C 143.043 4.833,142.519 5.200,142.359 5.200 C 141.758 5.200,138.141 9.203,138.300 9.692 C 138.355 9.861,138.211 10.000,137.979 10.000 C 137.748 10.000,137.375 10.526,137.151 11.168 C 136.927 11.810,136.475 12.439,136.147 12.565 C 135.818 12.691,135.661 12.976,135.798 13.197 C 135.935 13.419,135.887 13.600,135.690 13.600 C 135.494 13.600,135.333 13.825,135.333 14.100 C 135.333 14.375,135.050 15.230,134.704 16.000 C 133.880 17.835,133.629 19.032,133.383 22.297 C 133.047 26.751,132.769 28.140,131.960 29.400 C 131.537 30.060,131.088 30.893,130.961 31.251 C 130.835 31.609,130.297 32.101,129.766 32.343 C 129.235 32.585,128.800 32.950,128.800 33.154 C 128.800 33.358,128.412 33.424,127.937 33.300 C 127.358 33.148,127.166 33.222,127.354 33.525 C 127.526 33.803,127.204 34.079,126.516 34.243 C 125.902 34.390,125.175 34.688,124.900 34.904 C 124.560 35.172,124.400 35.147,124.400 34.825 C 124.400 34.565,124.248 34.447,124.062 34.562 C 123.876 34.676,120.366 34.792,116.262 34.817 C 110.864 34.852,108.798 34.994,108.794 35.332 C 108.790 35.614,108.643 35.571,108.424 35.226 C 108.128 34.757,107.948 34.745,107.448 35.160 C 107.111 35.440,106.619 35.536,106.356 35.373 C 106.060 35.190,105.981 35.246,106.149 35.518 C 106.320 35.794,105.894 36.059,105.011 36.224 C 104.235 36.370,103.600 36.660,103.600 36.868 C 103.600 37.077,103.420 37.136,103.200 37.000 C 102.980 36.864,102.800 36.956,102.800 37.203 C 102.800 37.481,102.473 37.550,101.950 37.384 C 101.353 37.195,101.186 37.254,101.390 37.584 C 101.568 37.872,101.355 38.139,100.840 38.274 C 100.378 38.394,100.000 38.682,100.000 38.913 C 100.000 39.144,99.882 39.215,99.737 39.070 C 99.592 38.926,98.872 39.427,98.137 40.184 C 97.402 40.941,96.793 41.344,96.785 41.080 C 96.777 40.816,96.412 41.365,95.974 42.300 C 95.535 43.235,95.029 44.000,94.849 44.000 C 94.669 44.000,94.184 44.765,93.772 45.700 C 93.359 46.635,92.878 47.503,92.702 47.629 C 92.525 47.756,92.295 48.251,92.191 48.729 C 92.086 49.208,91.915 49.988,91.811 50.462 C 91.256 52.992,91.158 57.311,91.593 60.001 C 91.860 61.650,92.106 63.322,92.139 63.715 C 92.173 64.108,92.380 64.558,92.600 64.715 C 92.820 64.872,93.358 65.720,93.796 66.600 C 94.234 67.480,94.819 68.344,95.096 68.520 C 95.373 68.696,95.604 69.056,95.609 69.320 C 95.614 69.584,95.989 70.250,96.444 70.800 C 96.898 71.350,97.134 71.530,96.969 71.200 C 96.804 70.870,97.144 71.050,97.725 71.600 C 99.355 73.144,100.580 74.196,100.800 74.241 C 101.768 74.437,103.600 75.352,103.600 75.639 C 103.600 75.838,103.930 76.000,104.333 76.000 C 104.737 76.000,105.183 76.117,105.326 76.259 C 105.469 76.402,106.534 76.593,107.693 76.685 C 108.852 76.776,109.971 77.019,110.180 77.225 C 110.789 77.826,204.918 77.722,205.520 77.120 C 205.893 76.747,206.107 76.747,206.480 77.120 C 206.744 77.384,207.149 77.597,207.380 77.594 C 207.611 77.591,207.552 77.431,207.249 77.238 C 206.873 77.001,207.354 76.799,208.759 76.606 C 209.893 76.450,211.072 76.071,211.378 75.765 C 211.770 75.372,211.981 75.344,212.089 75.667 C 212.272 76.215,213.711 75.547,213.606 74.964 C 213.569 74.764,214.093 74.439,214.770 74.242 C 215.446 74.045,216.000 73.674,216.000 73.416 C 216.000 73.159,216.602 72.661,217.337 72.311 C 218.098 71.948,218.950 71.097,219.314 70.336 C 219.666 69.601,220.325 68.773,220.777 68.497 C 221.230 68.220,221.600 67.654,221.600 67.239 C 221.600 66.825,221.910 66.367,222.289 66.221 C 222.879 65.995,222.893 65.904,222.389 65.585 C 222.016 65.349,221.977 65.210,222.285 65.206 C 222.551 65.203,222.974 64.435,223.224 63.500 C 223.474 62.565,223.824 61.620,224.001 61.400 C 224.447 60.848,224.688 56.141,224.420 53.200 C 224.312 52.004,223.303 48.422,222.506 46.400 C 222.376 46.070,222.254 45.706,222.235 45.591 C 222.216 45.475,221.801 44.953,221.314 44.430 C 220.826 43.907,220.522 43.326,220.637 43.139 C 220.753 42.953,220.595 42.800,220.288 42.800 C 219.980 42.800,219.527 42.359,219.282 41.819 C 219.036 41.280,218.287 40.555,217.617 40.209 C 216.948 39.863,216.400 39.303,216.400 38.966 C 216.400 38.629,216.235 38.455,216.032 38.580 C 215.830 38.705,215.393 38.536,215.061 38.204 C 214.729 37.872,214.174 37.600,213.829 37.600 C 213.483 37.600,213.200 37.456,213.200 37.280 C 213.200 36.901,210.841 36.000,209.848 36.000 C 209.424 36.000,209.264 35.820,209.438 35.538 C 209.619 35.246,209.548 35.185,209.244 35.373 C 208.981 35.536,208.503 35.451,208.182 35.185 C 207.776 34.848,207.600 34.837,207.600 35.149 C 207.600 35.610,206.531 35.584,205.762 35.103 C 205.521 34.952,201.896 34.808,197.706 34.783 C 191.685 34.747,189.911 34.613,189.244 34.145 C 188.779 33.820,188.230 33.658,188.024 33.785 C 187.818 33.913,187.503 33.784,187.325 33.499 C 187.146 33.214,186.505 32.666,185.900 32.281 C 185.295 31.896,184.800 31.331,184.800 31.024 C 184.800 30.718,184.601 30.400,184.358 30.319 C 183.646 30.082,182.813 27.172,182.806 24.900 C 182.803 23.745,182.632 22.800,182.427 22.800 C 182.221 22.800,182.069 22.266,182.087 21.614 C 182.109 20.865,182.283 20.525,182.560 20.691 C 182.802 20.835,182.754 20.650,182.453 20.279 C 182.152 19.908,182.000 19.243,182.115 18.802 C 182.231 18.360,182.182 18.087,182.007 18.195 C 181.833 18.303,181.594 17.899,181.476 17.296 C 181.359 16.693,181.173 15.840,181.062 15.400 C 180.952 14.960,180.847 14.454,180.831 14.276 C 180.814 14.098,180.635 14.055,180.432 14.180 C 180.230 14.305,179.867 13.808,179.625 13.076 C 179.203 11.796,178.475 10.646,177.200 9.246 C 176.870 8.883,176.281 8.095,175.891 7.493 C 175.501 6.892,174.936 6.400,174.637 6.400 C 174.337 6.400,173.797 5.950,173.437 5.400 C 173.076 4.850,172.525 4.400,172.211 4.400 C 171.897 4.400,171.496 4.164,171.320 3.877 C 171.144 3.589,170.370 3.107,169.600 2.807 C 168.830 2.506,167.750 1.971,167.200 1.617 C 166.650 1.263,165.660 0.916,165.000 0.846 C 164.340 0.776,163.496 0.556,163.124 0.358 C 162.718 0.142,162.357 0.146,162.219 0.369 C 162.078 0.598,161.492 0.598,160.697 0.371 C 159.265 -0.040,155.864 -0.131,155.501 0.233 M161.653 14.463 C 172.545 17.726,169.681 35.149,158.246 35.191 C 154.274 35.206,148.800 32.292,148.800 30.163 C 148.800 29.853,148.648 29.600,148.463 29.600 C 147.904 29.600,147.200 26.648,147.200 24.302 C 147.200 17.191,154.400 12.290,161.653 14.463 M19.600 49.156 C 19.600 49.352,18.925 49.624,18.100 49.759 C 17.275 49.895,16.240 50.080,15.800 50.170 C 15.360 50.260,14.865 50.348,14.700 50.367 C 14.535 50.385,14.400 50.648,14.400 50.951 C 14.400 51.494,12.115 52.690,11.470 52.485 C 11.289 52.427,11.241 52.543,11.365 52.743 C 11.615 53.147,7.430 57.600,6.800 57.600 C 6.580 57.600,6.400 57.966,6.400 58.413 C 6.400 58.859,6.146 59.322,5.837 59.441 C 5.527 59.560,5.055 60.185,4.788 60.829 C 4.521 61.473,4.134 62.000,3.928 62.000 C 3.722 62.000,3.657 62.169,3.785 62.375 C 3.912 62.582,3.698 62.936,3.308 63.163 C 2.919 63.390,2.726 63.581,2.879 63.588 C 3.033 63.595,2.970 64.140,2.740 64.800 C 2.488 65.524,2.139 65.895,1.861 65.735 C 1.607 65.590,1.533 65.619,1.697 65.799 C 1.860 65.979,1.793 66.368,1.548 66.663 C 1.303 66.958,1.236 67.200,1.400 67.200 C 1.564 67.200,1.474 67.470,1.200 67.800 C 0.926 68.130,0.787 68.400,0.891 68.400 C 0.995 68.400,0.847 69.705,0.562 71.300 C 0.144 73.645,0.047 107.062,0.059 245.800 C 0.074 425.134,0.051 422.625,1.672 423.653 C 1.962 423.837,2.055 423.991,1.877 423.994 C 1.700 423.997,1.835 424.400,2.177 424.889 C 2.520 425.378,2.800 426.079,2.800 426.446 C 2.800 426.814,3.085 427.224,3.433 427.357 C 3.782 427.491,3.993 427.821,3.903 428.092 C 3.740 428.579,3.966 428.958,5.291 430.420 C 5.671 430.839,5.925 431.411,5.856 431.691 C 5.788 431.971,5.806 432.066,5.898 431.903 C 5.990 431.740,7.117 432.685,8.403 434.003 C 9.689 435.321,10.964 436.400,11.237 436.400 C 11.510 436.400,11.614 436.519,11.469 436.664 C 11.227 436.907,12.098 437.553,13.600 438.245 C 13.930 438.397,14.515 438.792,14.900 439.123 C 15.285 439.453,15.603 439.561,15.606 439.362 C 15.609 439.163,15.776 439.259,15.977 439.576 C 16.177 439.893,16.846 440.219,17.463 440.302 C 18.080 440.385,18.678 440.584,18.793 440.745 C 18.907 440.906,19.623 441.080,20.384 441.132 C 21.146 441.183,22.284 441.483,22.915 441.797 C 23.830 442.254,24.226 442.271,24.883 441.884 C 25.531 441.502,25.743 441.506,25.886 441.900 C 26.030 442.298,44.297 442.400,115.400 442.400 C 186.506 442.400,204.769 442.298,204.910 441.900 C 205.007 441.625,204.744 440.912,204.327 440.315 C 203.909 439.719,203.481 438.558,203.376 437.735 C 203.271 436.913,202.816 435.615,202.365 434.851 C 201.915 434.088,201.444 432.549,201.319 431.431 C 201.195 430.314,200.881 429.130,200.623 428.800 C 200.365 428.470,200.172 427.717,200.195 427.127 C 200.218 426.537,200.093 426.142,199.918 426.251 C 199.743 426.359,199.572 426.122,199.537 425.724 C 199.405 424.193,199.214 422.935,198.850 421.203 C 198.642 420.215,198.574 419.243,198.698 419.042 C 198.822 418.841,198.716 418.805,198.462 418.962 C 198.208 419.119,198.000 419.057,198.000 418.824 C 198.000 418.591,198.201 418.400,198.446 418.400 C 198.713 418.400,198.616 417.978,198.205 417.351 C 197.826 416.774,197.716 416.424,197.959 416.574 C 198.201 416.724,198.400 416.657,198.400 416.424 C 198.400 416.191,198.222 416.000,198.004 416.000 C 197.787 416.000,197.617 415.595,197.626 415.100 C 197.660 413.271,197.186 407.502,196.973 407.157 C 196.845 406.950,162.841 406.800,115.976 406.800 L 35.200 406.800 35.200 266.600 L 35.200 126.400 157.800 126.400 L 280.400 126.400 280.400 208.976 C 280.400 256.561,280.550 291.646,280.755 291.772 C 280.950 291.893,281.332 291.723,281.604 291.396 C 281.876 291.068,282.391 290.803,282.749 290.806 C 283.315 290.811,283.322 290.863,282.800 291.200 C 282.281 291.535,282.290 291.589,282.867 291.594 C 283.233 291.597,283.600 291.399,283.682 291.153 C 283.764 290.907,284.994 290.479,286.416 290.201 C 287.837 289.923,289.315 289.565,289.700 289.405 C 290.108 289.236,290.400 289.291,290.400 289.537 C 290.400 289.802,290.921 289.742,291.802 289.373 C 292.573 289.051,294.418 288.711,295.902 288.617 C 297.386 288.524,299.421 288.286,300.425 288.089 C 301.429 287.892,302.599 287.793,303.025 287.868 C 304.435 288.118,313.127 288.092,313.540 287.837 C 313.762 287.700,314.058 287.770,314.197 287.995 C 314.367 288.270,314.701 288.267,315.230 287.984 C 316.003 287.571,316.009 286.374,315.862 179.683 C 315.700 63.159,315.749 70.261,315.114 70.653 C 314.838 70.824,314.792 70.737,314.989 70.417 C 315.162 70.138,315.114 69.794,314.885 69.652 C 314.655 69.510,314.403 68.855,314.326 68.197 C 314.180 66.961,312.021 62.897,310.731 61.431 C 309.042 59.511,308.800 59.180,308.800 58.791 C 308.800 58.567,308.350 58.178,307.800 57.927 C 307.250 57.677,306.800 57.333,306.800 57.163 C 306.800 56.993,306.437 56.739,305.994 56.598 C 305.551 56.457,305.292 56.175,305.418 55.971 C 305.544 55.767,305.277 55.600,304.824 55.600 C 304.371 55.600,304.045 55.403,304.100 55.163 C 304.155 54.923,303.350 54.448,302.310 54.108 C 301.271 53.768,300.503 53.357,300.603 53.195 C 300.703 53.033,299.934 52.669,298.893 52.387 C 297.852 52.105,296.348 51.550,295.550 51.155 C 294.115 50.442,288.388 49.521,285.508 49.540 C 284.687 49.545,283.912 49.381,283.784 49.175 C 283.645 48.949,274.541 48.800,260.862 48.800 L 238.172 48.800 238.268 54.700 C 238.349 59.700,238.110 62.610,237.453 64.600 C 237.076 65.741,236.879 66.322,236.433 67.600 C 236.164 68.370,235.905 69.180,235.857 69.400 C 235.808 69.620,235.473 70.250,235.111 70.800 C 234.750 71.350,234.336 72.282,234.191 72.871 C 234.046 73.460,233.674 74.039,233.364 74.159 C 233.054 74.278,232.800 74.651,232.800 74.987 C 232.800 75.324,232.620 75.600,232.400 75.600 C 232.180 75.600,232.000 75.954,232.000 76.386 C 232.000 76.818,231.640 77.365,231.200 77.600 C 230.760 77.835,230.400 78.211,230.400 78.434 C 230.400 78.984,227.828 81.600,227.287 81.600 C 227.049 81.600,226.736 81.973,226.591 82.429 C 226.427 82.944,226.106 83.173,225.743 83.034 C 225.422 82.910,225.260 82.974,225.385 83.176 C 225.510 83.377,225.249 83.657,224.806 83.798 C 224.363 83.939,224.000 84.275,224.000 84.545 C 224.000 84.815,223.190 85.370,222.200 85.778 C 221.210 86.187,220.400 86.693,220.400 86.903 C 220.400 87.113,220.121 87.178,219.779 87.047 C 219.438 86.916,219.252 86.960,219.366 87.145 C 219.480 87.330,218.860 87.695,217.987 87.957 C 217.114 88.218,216.400 88.620,216.400 88.849 C 216.400 89.079,216.175 89.186,215.900 89.087 C 215.625 88.989,215.073 89.076,214.674 89.282 C 213.795 89.735,212.746 89.986,210.500 90.281 C 209.565 90.404,208.800 90.661,208.800 90.852 C 208.800 91.398,206.491 91.259,206.265 90.700 C 206.105 90.304,206.057 90.305,206.032 90.706 C 205.995 91.297,106.800 91.434,106.800 90.843 C 106.800 90.659,105.964 90.394,104.941 90.254 C 102.186 89.876,99.948 89.208,100.181 88.831 C 100.293 88.649,99.675 88.386,98.806 88.247 C 97.937 88.108,96.905 87.661,96.513 87.254 C 96.121 86.846,95.338 86.402,94.774 86.267 C 94.209 86.132,93.327 85.657,92.813 85.211 C 92.298 84.765,91.715 84.400,91.515 84.400 C 91.316 84.400,91.267 84.216,91.406 83.990 C 91.545 83.765,91.511 83.606,91.330 83.637 C 90.523 83.778,89.973 83.567,90.197 83.205 C 90.343 82.969,90.162 82.916,89.751 83.074 C 89.216 83.279,89.121 83.184,89.326 82.649 C 89.472 82.269,89.439 82.052,89.254 82.167 C 88.588 82.578,84.958 78.622,83.866 76.293 C 83.580 75.685,83.248 75.285,83.127 75.406 C 83.006 75.527,82.682 75.080,82.405 74.413 C 82.129 73.746,81.726 73.200,81.509 73.200 C 81.292 73.200,81.218 72.930,81.345 72.600 C 81.471 72.270,81.415 72.000,81.218 72.000 C 80.913 72.000,79.868 69.553,79.817 68.720 C 79.808 68.566,79.575 68.215,79.300 67.940 C 79.025 67.665,78.800 67.285,78.800 67.096 C 78.800 66.907,79.025 66.884,79.300 67.045 C 79.575 67.206,79.485 66.977,79.100 66.537 C 78.715 66.097,78.400 65.357,78.400 64.892 C 78.400 64.427,78.211 63.931,77.981 63.788 C 77.690 63.608,77.694 63.369,77.994 63.007 C 78.313 62.623,78.265 62.322,77.814 61.871 C 77.109 61.167,76.992 60.624,77.630 61.018 C 77.866 61.164,77.821 60.899,77.530 60.430 C 77.187 59.877,77.141 59.474,77.400 59.288 C 77.860 58.957,77.954 53.598,77.500 53.599 C 77.335 53.600,77.200 53.330,77.200 53.000 C 77.200 52.670,77.416 52.400,77.680 52.400 C 78.038 52.400,78.045 52.285,77.706 51.946 C 77.367 51.607,77.401 51.342,77.840 50.903 C 78.252 50.491,78.305 50.168,78.017 49.821 C 77.792 49.549,77.725 49.208,77.870 49.063 C 78.015 48.918,64.963 48.800,48.867 48.800 C 32.019 48.800,19.600 48.951,19.600 49.156 M106.551 145.627 C 106.138 145.777,105.665 145.822,105.500 145.726 C 105.335 145.631,105.200 145.833,105.200 146.176 C 105.200 146.519,104.934 146.800,104.609 146.800 C 104.284 146.800,103.724 147.250,103.363 147.800 C 103.003 148.350,102.459 148.800,102.154 148.800 C 101.849 148.800,101.600 148.952,101.600 149.139 C 101.600 149.325,101.219 149.910,100.754 150.439 C 100.289 150.967,99.638 151.805,99.308 152.300 C 98.978 152.795,98.471 153.200,98.181 153.200 C 97.891 153.200,97.540 153.560,97.400 154.000 C 97.260 154.440,96.968 154.800,96.749 154.800 C 96.531 154.800,96.448 154.954,96.564 155.142 C 96.680 155.330,95.778 156.406,94.559 157.533 C 93.339 158.660,92.448 159.753,92.577 159.962 C 92.706 160.171,92.468 160.451,92.049 160.584 C 91.630 160.718,91.188 161.204,91.067 161.665 C 90.921 162.223,90.639 162.424,90.224 162.265 C 89.849 162.121,89.600 162.240,89.600 162.564 C 89.600 162.860,89.332 163.324,89.004 163.596 C 88.677 163.868,88.495 164.230,88.600 164.400 C 88.705 164.570,88.433 164.803,87.996 164.917 C 87.558 165.031,87.200 165.397,87.200 165.730 C 87.200 166.063,86.569 166.725,85.798 167.202 C 85.026 167.678,84.485 168.215,84.596 168.393 C 84.910 168.901,82.636 171.125,81.518 171.406 C 80.687 171.615,80.153 171.308,78.430 169.629 C 77.284 168.513,76.131 167.600,75.868 167.600 C 75.605 167.600,75.052 167.150,74.639 166.600 C 74.226 166.050,73.726 165.600,73.527 165.600 C 73.329 165.600,72.949 165.423,72.683 165.206 C 70.418 163.359,69.630 162.800,69.291 162.800 C 69.075 162.800,68.667 162.521,68.384 162.181 C 67.974 161.687,67.804 161.667,67.541 162.081 C 67.274 162.503,67.211 162.503,67.206 162.084 C 67.202 161.733,66.686 161.598,65.600 161.662 C 64.720 161.714,64.000 161.874,64.000 162.017 C 64.000 162.161,63.280 162.603,62.400 163.000 C 61.520 163.397,60.800 163.942,60.800 164.212 C 60.800 164.481,60.564 164.898,60.275 165.137 C 58.821 166.344,59.681 170.908,61.753 172.980 C 62.534 173.761,63.044 174.408,62.887 174.418 C 62.729 174.427,63.275 174.792,64.100 175.227 C 64.925 175.663,65.600 176.115,65.600 176.233 C 65.600 176.351,65.392 176.319,65.138 176.162 C 64.852 175.985,64.785 176.052,64.962 176.338 C 65.119 176.592,65.569 176.800,65.962 176.800 C 66.355 176.800,67.002 177.160,67.400 177.600 C 67.798 178.040,67.961 178.400,67.762 178.401 C 67.563 178.401,68.030 178.722,68.800 179.114 C 69.570 179.506,70.151 180.059,70.090 180.343 C 70.030 180.627,70.165 180.745,70.390 180.606 C 70.616 180.467,70.800 180.499,70.800 180.679 C 70.800 180.858,71.358 181.252,72.040 181.554 C 72.850 181.912,73.115 182.206,72.802 182.399 C 72.494 182.589,72.694 182.787,73.362 182.955 C 73.933 183.098,74.400 183.402,74.400 183.631 C 74.400 183.860,74.571 183.942,74.780 183.812 C 74.989 183.683,75.355 183.943,75.594 184.389 C 75.833 184.835,76.280 185.200,76.587 185.200 C 76.894 185.200,77.538 185.751,78.018 186.425 C 78.512 187.119,79.126 187.561,79.433 187.443 C 79.731 187.329,80.056 187.367,80.156 187.529 C 80.419 187.954,83.617 187.784,84.863 187.279 C 85.936 186.844,88.120 184.818,89.173 183.279 C 89.488 182.819,89.921 182.551,90.135 182.683 C 90.349 182.815,90.410 182.740,90.271 182.515 C 90.132 182.291,90.406 181.768,90.878 181.353 C 91.351 180.939,91.606 180.825,91.445 181.100 C 91.284 181.375,91.245 181.600,91.358 181.600 C 91.470 181.600,91.878 180.925,92.263 180.100 C 92.924 178.684,96.604 174.800,97.285 174.800 C 97.458 174.800,97.600 174.534,97.600 174.208 C 97.600 173.883,98.513 172.713,99.630 171.608 C 100.746 170.504,101.529 169.600,101.370 169.600 C 101.211 169.600,101.646 169.060,102.337 168.400 C 103.028 167.740,103.774 167.200,103.996 167.200 C 104.218 167.200,104.400 166.930,104.400 166.600 C 104.400 166.270,104.535 165.999,104.700 165.997 C 104.865 165.996,105.308 165.454,105.684 164.792 C 106.061 164.131,106.593 163.637,106.866 163.695 C 107.140 163.753,107.372 163.616,107.382 163.391 C 107.392 163.165,107.805 162.547,108.300 162.015 C 108.795 161.484,109.200 160.825,109.200 160.552 C 109.200 160.278,109.560 159.940,110.000 159.800 C 110.440 159.660,110.800 159.288,110.800 158.973 C 110.800 158.658,110.952 158.400,111.139 158.400 C 111.702 158.400,113.347 156.814,113.070 156.537 C 112.928 156.395,113.084 156.081,113.415 155.838 C 114.985 154.690,114.584 149.343,112.796 147.596 C 112.168 146.982,111.777 146.345,111.927 146.181 C 112.077 146.016,111.804 145.979,111.319 146.098 C 110.835 146.218,110.383 146.150,110.316 145.948 C 110.162 145.486,107.551 145.263,106.551 145.627 M130.498 161.468 C 130.221 161.578,130.078 161.803,130.179 161.967 C 130.281 162.131,129.742 162.509,128.982 162.807 C 128.222 163.105,127.600 163.573,127.600 163.846 C 127.600 164.119,127.375 164.581,127.100 164.871 C 126.167 165.858,125.564 176.392,126.384 177.380 C 126.620 177.665,126.704 178.236,126.569 178.649 C 126.389 179.202,126.426 179.258,126.710 178.861 C 127.004 178.450,127.197 178.615,127.525 179.557 C 127.823 180.412,128.423 180.992,129.478 181.445 C 130.315 181.804,131.313 182.256,131.695 182.449 C 132.875 183.046,246.687 182.899,246.967 182.300 C 247.143 181.922,247.255 181.916,247.425 182.275 C 247.586 182.616,247.871 182.559,248.434 182.075 C 248.865 181.704,249.618 181.302,250.107 181.182 C 250.596 181.063,251.063 180.617,251.145 180.192 C 251.226 179.768,251.587 179.205,251.947 178.942 C 252.965 178.197,252.922 165.724,251.900 165.152 C 251.515 164.936,251.200 164.413,251.200 163.988 C 251.200 163.496,250.834 163.123,250.195 162.963 C 249.642 162.824,249.025 162.416,248.823 162.055 C 248.466 161.417,132.074 160.839,130.498 161.468 M101.723 211.989 C 101.837 212.362,98.952 214.819,98.698 214.565 C 98.579 214.446,98.072 215.170,97.570 216.174 C 97.069 217.178,96.432 218.000,96.156 218.000 C 95.880 218.000,95.543 218.351,95.406 218.780 C 95.269 219.212,94.923 219.469,94.629 219.356 C 94.312 219.234,94.005 219.525,93.866 220.080 C 93.605 221.120,91.117 224.000,90.480 224.000 C 90.253 224.000,89.827 224.542,89.534 225.205 C 89.241 225.867,88.705 226.503,88.343 226.618 C 87.982 226.733,87.594 227.181,87.481 227.613 C 87.367 228.046,87.000 228.400,86.664 228.400 C 86.329 228.400,85.940 228.760,85.800 229.200 C 85.660 229.640,85.348 230.000,85.106 230.000 C 84.865 230.000,84.773 230.107,84.904 230.237 C 85.217 230.551,83.173 232.831,82.790 232.594 C 82.627 232.493,82.279 232.927,82.017 233.559 C 80.937 236.167,76.286 239.466,76.687 237.339 C 76.735 237.086,76.195 236.602,75.487 236.264 C 74.779 235.926,73.935 235.279,73.612 234.825 C 73.288 234.371,72.812 234.000,72.554 234.000 C 72.297 234.000,71.978 233.719,71.846 233.375 C 71.714 233.031,71.424 232.861,71.203 232.998 C 70.981 233.135,70.800 232.967,70.800 232.624 C 70.800 232.251,70.452 232.000,69.933 232.000 C 69.457 232.000,69.165 231.902,69.285 231.782 C 70.232 230.835,64.848 228.000,62.102 228.000 C 60.375 228.000,55.391 231.175,57.069 231.206 C 57.251 231.209,57.142 231.376,56.826 231.575 C 55.544 232.387,56.102 237.533,57.594 238.656 C 57.927 238.907,58.762 239.627,59.449 240.256 C 60.137 240.885,61.191 241.760,61.793 242.200 C 62.395 242.640,63.358 243.495,63.933 244.100 C 64.508 244.705,65.208 245.200,65.489 245.200 C 65.770 245.200,66.000 245.448,66.000 245.751 C 66.000 246.055,66.540 246.527,67.200 246.800 C 67.860 247.073,68.400 247.556,68.400 247.872 C 68.400 248.188,68.560 248.349,68.755 248.228 C 68.950 248.107,69.332 248.277,69.604 248.604 C 69.876 248.932,70.325 249.200,70.603 249.200 C 70.881 249.200,71.403 249.650,71.763 250.200 C 72.124 250.750,72.684 251.200,73.009 251.200 C 73.334 251.200,73.600 251.384,73.600 251.609 C 73.600 251.833,74.050 252.222,74.600 252.473 C 75.150 252.723,75.614 253.215,75.632 253.564 C 75.654 254.013,75.725 254.046,75.873 253.676 C 76.036 253.268,76.252 253.304,76.841 253.838 C 77.285 254.239,77.600 254.332,77.600 254.062 C 77.600 253.462,79.467 253.460,79.837 254.061 C 80.041 254.390,80.247 254.350,80.563 253.919 C 81.010 253.306,82.729 252.568,83.330 252.731 C 83.511 252.780,83.557 252.654,83.432 252.452 C 83.307 252.250,84.014 251.264,85.002 250.261 C 85.991 249.258,86.800 248.342,86.800 248.224 C 86.800 248.002,88.821 245.778,92.108 242.386 C 93.157 241.302,94.057 240.277,94.108 240.108 C 94.159 239.939,94.335 239.845,94.500 239.900 C 94.665 239.955,94.800 239.749,94.800 239.441 C 94.800 239.134,95.430 238.330,96.200 237.654 C 96.970 236.978,97.606 236.284,97.613 236.112 C 97.644 235.400,99.207 233.957,99.651 234.231 C 99.957 234.421,100.017 234.351,99.822 234.035 C 99.629 233.724,99.824 233.467,100.355 233.328 C 100.815 233.207,101.092 232.948,100.970 232.752 C 100.849 232.555,101.031 232.286,101.375 232.154 C 101.719 232.022,102.000 231.686,102.000 231.406 C 102.000 231.126,102.405 230.597,102.900 230.230 C 103.395 229.863,103.530 229.675,103.200 229.811 C 102.870 229.948,102.949 229.776,103.376 229.430 C 103.804 229.083,104.299 228.800,104.476 228.800 C 104.654 228.800,104.800 228.519,104.800 228.176 C 104.800 227.833,104.980 227.664,105.200 227.800 C 105.420 227.936,105.600 227.717,105.600 227.313 C 105.600 226.578,107.743 224.400,108.465 224.400 C 108.675 224.400,108.735 224.219,108.598 223.997 C 108.461 223.776,108.630 223.487,108.972 223.355 C 109.315 223.224,109.496 222.955,109.374 222.758 C 109.252 222.561,109.322 222.400,109.528 222.400 C 110.320 222.400,110.907 219.959,110.690 217.566 C 110.468 215.116,108.682 212.416,107.276 212.404 C 106.988 212.402,106.836 212.265,106.937 212.100 C 107.038 211.935,105.889 211.786,104.383 211.768 C 102.877 211.751,101.680 211.850,101.723 211.989 M131.500 224.685 C 130.895 224.778,130.400 225.032,130.400 225.250 C 130.400 225.469,130.220 225.536,130.000 225.400 C 129.780 225.264,129.600 225.343,129.600 225.576 C 129.600 225.809,129.242 226.000,128.805 226.000 C 128.275 226.000,127.816 226.466,127.426 227.400 C 127.104 228.170,126.652 228.800,126.420 228.800 C 126.189 228.800,126.000 229.081,126.000 229.424 C 126.000 229.767,126.180 229.936,126.400 229.800 C 126.620 229.664,126.800 229.743,126.800 229.976 C 126.800 230.209,126.620 230.400,126.400 230.400 C 126.157 230.400,126.000 232.200,126.000 235.000 C 126.000 237.530,126.142 239.600,126.315 239.600 C 126.488 239.600,126.655 239.935,126.686 240.345 C 126.840 242.389,128.185 244.149,130.095 244.806 C 131.138 245.164,132.113 245.579,132.262 245.729 C 132.716 246.182,246.319 246.055,246.600 245.600 C 246.736 245.380,247.276 245.200,247.800 245.200 C 248.324 245.200,248.864 245.020,249.000 244.800 C 249.136 244.580,249.593 244.400,250.016 244.400 C 250.502 244.400,250.877 244.033,251.036 243.400 C 251.174 242.850,251.507 242.400,251.777 242.400 C 252.419 242.400,252.416 242.423,252.627 235.089 C 252.785 229.616,252.726 228.746,252.182 228.538 C 251.836 228.405,251.626 228.095,251.714 227.848 C 251.922 227.267,249.871 225.310,249.265 225.512 C 249.009 225.597,248.692 225.384,248.559 225.038 C 248.331 224.444,135.316 224.103,131.500 224.685 M103.042 267.015 C 102.689 267.368,102.400 267.472,102.400 267.245 C 102.400 267.018,101.635 267.543,100.700 268.411 C 99.765 269.279,98.787 269.992,98.527 269.995 C 98.267 269.998,97.946 270.339,97.815 270.752 C 97.471 271.837,96.170 273.237,95.826 272.893 C 95.665 272.732,95.577 272.780,95.630 273.000 C 95.800 273.700,95.151 274.756,94.667 274.570 C 94.410 274.472,93.959 274.934,93.665 275.598 C 93.371 276.261,92.979 276.711,92.793 276.596 C 92.607 276.481,92.325 276.598,92.166 276.855 C 91.985 277.148,92.050 277.216,92.338 277.038 C 93.096 276.570,92.863 277.137,91.902 278.098 C 91.408 278.592,90.821 278.954,90.598 278.902 C 90.374 278.851,89.936 279.392,89.624 280.104 C 89.313 280.817,88.101 282.317,86.932 283.437 C 85.763 284.557,84.925 285.592,85.070 285.737 C 85.215 285.882,85.168 286.004,84.967 286.009 C 84.765 286.014,84.150 286.389,83.600 286.844 C 83.050 287.298,82.870 287.534,83.200 287.369 C 83.530 287.204,83.305 287.540,82.700 288.115 C 82.095 288.691,81.600 289.350,81.600 289.581 C 81.600 289.811,81.371 290.000,81.091 290.000 C 80.811 290.000,80.240 290.635,79.822 291.412 C 79.300 292.381,78.965 292.666,78.752 292.323 C 78.522 291.950,78.376 291.998,78.179 292.511 C 77.778 293.555,76.927 293.339,76.132 291.992 C 75.739 291.328,75.198 290.869,74.930 290.972 C 74.661 291.075,74.329 290.806,74.192 290.374 C 74.055 289.942,73.775 289.692,73.571 289.818 C 73.367 289.944,73.200 289.857,73.200 289.624 C 73.200 289.391,73.020 289.200,72.800 289.200 C 72.288 289.200,70.800 287.722,70.800 287.213 C 70.800 286.999,70.550 286.921,70.244 287.038 C 69.743 287.231,67.583 285.503,67.642 284.958 C 67.656 284.834,67.533 284.613,67.369 284.467 C 67.206 284.320,67.201 284.425,67.359 284.700 C 67.518 284.975,67.457 285.200,67.224 285.200 C 66.991 285.200,66.800 285.022,66.800 284.805 C 66.800 284.193,64.340 283.312,62.081 283.115 C 60.957 283.017,60.111 283.057,60.202 283.203 C 60.292 283.349,59.743 283.765,58.983 284.128 C 58.222 284.490,57.600 285.050,57.600 285.371 C 57.600 285.692,57.285 286.190,56.900 286.477 C 54.584 288.207,58.090 296.800,61.111 296.800 C 61.358 296.800,61.704 297.044,61.880 297.342 C 62.056 297.639,62.610 298.099,63.111 298.362 C 63.616 298.627,63.901 299.037,63.749 299.282 C 63.585 299.548,63.660 299.610,63.938 299.438 C 64.192 299.281,64.400 299.315,64.400 299.512 C 64.400 299.710,64.850 300.077,65.400 300.327 C 65.950 300.578,66.400 301.067,66.400 301.415 C 66.400 301.763,66.558 301.949,66.752 301.830 C 66.945 301.710,67.606 302.105,68.221 302.706 C 68.835 303.308,69.209 303.530,69.051 303.200 C 68.892 302.870,69.063 303.005,69.430 303.500 C 69.797 303.995,70.282 304.400,70.507 304.400 C 70.732 304.400,71.295 304.758,71.758 305.196 C 73.878 307.200,74.865 308.000,75.218 308.000 C 75.428 308.000,75.600 308.306,75.600 308.680 C 75.600 309.198,75.711 309.249,76.066 308.894 C 76.421 308.539,76.657 308.592,77.053 309.114 C 77.377 309.540,77.579 309.610,77.587 309.300 C 77.594 309.025,78.035 308.800,78.567 308.800 C 79.098 308.800,79.618 309.025,79.721 309.300 C 79.850 309.645,80.098 309.553,80.521 309.001 C 80.859 308.561,81.266 308.333,81.427 308.493 C 81.587 308.654,82.048 308.406,82.450 307.942 C 82.852 307.479,83.771 306.664,84.491 306.133 C 85.211 305.602,85.732 305.063,85.648 304.935 C 85.486 304.687,87.570 302.254,91.300 298.337 C 92.565 297.008,93.600 295.787,93.600 295.622 C 93.600 295.261,94.997 293.957,95.232 294.099 C 95.325 294.155,95.365 294.135,95.322 294.056 C 95.156 293.746,99.358 288.973,100.199 288.516 C 100.689 288.250,101.316 287.485,101.593 286.816 C 101.870 286.147,102.335 285.600,102.625 285.600 C 102.915 285.600,103.281 285.392,103.438 285.138 C 103.626 284.835,103.531 284.776,103.162 284.968 C 102.853 285.128,102.949 284.976,103.376 284.630 C 103.804 284.283,104.404 284.000,104.710 284.000 C 105.016 284.000,105.193 283.779,105.103 283.509 C 104.912 282.935,105.156 282.613,107.698 280.086 C 108.742 279.049,109.597 277.964,109.598 277.676 C 109.599 277.388,109.784 277.267,110.010 277.406 C 110.235 277.545,110.394 277.511,110.363 277.330 C 110.218 276.496,110.432 275.572,110.728 275.755 C 111.043 275.950,111.021 275.430,110.557 271.678 C 110.272 269.375,106.889 266.373,105.276 266.992 C 104.958 267.114,104.470 267.024,104.192 266.793 C 103.827 266.490,103.505 266.552,103.042 267.015 M131.292 280.686 C 130.573 280.777,130.080 281.006,130.196 281.194 C 130.312 281.382,129.821 281.732,129.104 281.972 C 126.239 282.933,124.725 293.000,126.800 297.294 C 127.240 298.205,127.600 299.176,127.600 299.452 C 127.600 299.727,127.808 300.081,128.062 300.238 C 128.345 300.413,128.415 300.348,128.243 300.070 C 128.089 299.820,128.499 299.924,129.155 300.300 C 129.818 300.681,130.164 301.099,129.934 301.241 C 128.945 301.852,134.357 301.945,172.128 301.964 L 212.055 301.985 214.061 300.839 C 217.078 299.116,217.346 298.387,217.456 291.600 C 217.556 285.429,216.936 282.726,215.279 282.104 C 214.906 281.964,214.390 281.568,214.132 281.225 C 213.688 280.631,135.733 280.124,131.292 280.686 M303.921 308.778 C 303.855 308.945,301.730 309.207,299.200 309.358 C 293.218 309.716,291.906 309.905,291.563 310.459 C 291.408 310.711,290.970 310.797,290.590 310.651 C 290.210 310.506,289.696 310.550,289.449 310.749 C 289.202 310.949,288.280 311.216,287.400 311.343 C 286.520 311.469,285.229 311.742,284.530 311.950 C 283.832 312.157,283.157 312.223,283.030 312.097 C 282.904 311.970,282.800 312.055,282.800 312.286 C 282.800 312.646,280.868 313.299,278.259 313.822 C 277.852 313.903,277.232 314.202,276.882 314.485 C 276.347 314.918,276.301 314.905,276.592 314.400 C 276.863 313.930,276.772 313.942,276.169 314.458 C 275.746 314.820,274.504 315.417,273.410 315.784 C 272.315 316.151,271.187 316.645,270.903 316.881 C 270.618 317.117,270.074 317.343,269.693 317.383 C 269.312 317.424,268.685 317.579,268.300 317.728 C 267.915 317.878,267.290 318.100,266.911 318.222 C 266.398 318.387,266.351 318.522,266.725 318.754 C 267.053 318.956,266.666 319.233,265.614 319.548 C 264.726 319.814,264.000 320.224,264.000 320.459 C 264.000 320.694,263.721 320.778,263.379 320.647 C 263.038 320.516,262.852 320.561,262.967 320.746 C 263.198 321.120,261.506 322.000,260.558 322.000 C 260.225 322.000,260.063 322.178,260.198 322.396 C 260.332 322.614,259.803 323.098,259.021 323.470 C 258.240 323.843,257.600 324.292,257.600 324.469 C 257.600 324.645,256.944 325.063,256.143 325.398 C 255.341 325.733,254.216 326.458,253.643 327.008 C 251.588 328.980,250.990 329.465,250.300 329.718 C 249.915 329.859,249.600 330.171,249.600 330.411 C 249.600 330.651,249.421 330.736,249.202 330.601 C 248.983 330.466,248.596 330.809,248.343 331.365 C 248.090 331.920,247.729 332.280,247.542 332.164 C 247.354 332.048,247.200 332.135,247.200 332.358 C 247.200 332.960,245.202 334.848,244.817 334.610 C 244.635 334.498,244.384 334.811,244.259 335.307 C 244.135 335.802,243.044 337.016,241.836 338.004 C 240.628 338.992,239.630 340.025,239.619 340.300 C 239.609 340.575,239.449 340.800,239.264 340.800 C 239.080 340.800,238.723 341.250,238.473 341.800 C 238.222 342.350,237.755 342.800,237.436 342.800 C 237.116 342.800,236.726 343.205,236.570 343.700 C 236.414 344.195,235.772 345.226,235.143 345.991 C 234.515 346.756,234.000 347.602,234.000 347.871 C 234.000 348.140,233.754 348.504,233.454 348.680 C 233.154 348.856,232.609 349.585,232.244 350.300 C 231.878 351.015,231.483 351.600,231.366 351.600 C 231.249 351.600,231.281 351.392,231.438 351.138 C 231.615 350.852,231.548 350.785,231.262 350.962 C 231.008 351.119,230.800 351.500,230.800 351.810 C 230.800 352.587,229.522 355.200,229.142 355.200 C 228.972 355.200,228.614 355.927,228.348 356.817 C 228.019 357.915,227.686 358.365,227.311 358.221 C 226.978 358.094,226.867 358.184,227.030 358.449 C 227.180 358.691,227.086 359.023,226.822 359.186 C 226.558 359.349,226.290 359.963,226.225 360.550 C 226.161 361.137,225.792 361.967,225.406 362.394 C 225.019 362.821,224.803 363.432,224.926 363.752 C 225.049 364.072,224.891 364.433,224.575 364.554 C 224.259 364.676,224.000 365.241,224.000 365.811 C 224.000 366.527,223.845 366.758,223.500 366.559 C 223.225 366.401,223.124 366.409,223.274 366.577 C 223.425 366.745,223.364 367.359,223.139 367.941 C 222.729 369.001,222.524 369.727,222.106 371.600 C 221.984 372.150,221.636 372.746,221.333 372.925 C 221.031 373.103,220.866 373.383,220.967 373.547 C 221.068 373.710,220.980 374.554,220.772 375.422 C 220.564 376.290,220.284 377.720,220.150 378.600 C 220.016 379.480,219.738 380.306,219.533 380.436 C 219.329 380.565,219.246 381.140,219.350 381.713 C 219.454 382.285,219.373 382.809,219.172 382.877 C 218.970 382.945,218.714 384.170,218.604 385.600 C 218.309 389.409,217.977 391.200,217.565 391.200 C 217.364 391.200,217.200 391.391,217.200 391.624 C 217.200 391.857,217.380 391.936,217.600 391.800 C 218.156 391.456,218.119 395.321,217.561 395.879 C 217.265 396.175,217.206 397.602,217.381 400.259 C 218.177 412.355,218.502 415.673,219.045 417.286 C 219.215 417.789,219.308 418.515,219.252 418.900 C 219.196 419.285,219.341 419.600,219.575 419.600 C 220.179 419.600,220.105 420.797,219.500 420.812 C 219.214 420.819,219.291 420.994,219.681 421.222 C 220.144 421.492,220.450 422.393,220.636 424.035 C 220.786 425.365,221.126 426.669,221.390 426.933 C 221.655 427.198,221.992 427.951,222.140 428.607 C 222.288 429.263,222.507 430.250,222.627 430.800 C 222.748 431.350,223.106 432.199,223.423 432.686 C 223.740 433.173,224.000 433.851,224.000 434.191 C 224.000 434.900,224.807 436.458,225.400 436.894 C 225.620 437.056,225.661 437.191,225.491 437.194 C 225.321 437.197,225.456 437.619,225.792 438.132 C 226.128 438.644,226.282 439.184,226.135 439.332 C 225.987 439.479,226.071 439.600,226.321 439.600 C 226.571 439.600,226.671 439.870,226.545 440.200 C 226.418 440.530,226.508 440.800,226.745 440.800 C 226.983 440.800,227.060 441.099,226.918 441.469 C 226.726 441.969,226.825 442.076,227.304 441.892 C 227.776 441.711,228.013 441.950,228.198 442.789 C 228.336 443.418,228.888 444.442,229.424 445.066 C 229.961 445.690,230.510 446.787,230.645 447.504 C 230.780 448.222,231.078 448.925,231.307 449.066 C 231.549 449.216,231.604 449.130,231.438 448.862 C 231.281 448.608,231.249 448.400,231.366 448.400 C 231.483 448.400,231.878 448.985,232.244 449.700 C 232.609 450.415,233.154 451.144,233.454 451.320 C 233.754 451.496,234.000 451.891,234.000 452.197 C 234.000 452.504,234.364 453.010,234.809 453.321 C 235.364 453.710,235.532 454.125,235.345 454.644 C 235.195 455.060,235.220 455.267,235.399 455.103 C 235.871 454.675,236.800 455.568,236.800 456.449 C 236.800 456.862,237.074 457.200,237.409 457.200 C 237.743 457.200,238.222 457.650,238.473 458.200 C 238.723 458.750,239.080 459.200,239.264 459.200 C 239.449 459.200,239.609 459.425,239.620 459.700 C 239.631 459.975,240.528 460.920,241.614 461.800 C 242.700 462.680,243.591 463.625,243.594 463.900 C 243.597 464.175,243.765 464.400,243.967 464.400 C 244.438 464.400,248.400 468.371,248.400 468.843 C 248.400 469.040,248.670 469.200,249.000 469.200 C 249.330 469.200,249.600 469.391,249.600 469.624 C 249.600 469.857,249.775 469.939,249.988 469.807 C 250.202 469.675,250.496 470.042,250.641 470.622 C 250.836 471.399,250.995 471.535,251.247 471.138 C 251.510 470.723,251.589 470.759,251.594 471.300 C 251.597 471.685,251.836 472.000,252.125 472.000 C 252.413 472.000,253.043 472.367,253.525 472.816 C 254.006 473.264,254.400 473.500,254.400 473.340 C 254.400 473.180,254.751 473.398,255.181 473.825 C 256.490 475.125,257.200 475.647,257.206 475.316 C 257.209 475.142,257.344 475.200,257.506 475.444 C 257.668 475.688,258.385 476.188,259.100 476.554 C 259.815 476.921,260.400 477.382,260.400 477.579 C 260.400 477.777,261.012 478.140,261.759 478.386 C 262.506 478.633,263.525 479.188,264.022 479.619 C 264.519 480.050,265.573 480.578,266.363 480.791 C 267.153 481.005,268.031 481.551,268.313 482.004 C 268.594 482.458,269.044 482.787,269.313 482.736 C 270.103 482.585,271.758 483.266,272.286 483.958 C 272.555 484.311,272.780 484.476,272.787 484.324 C 272.794 484.172,273.282 484.298,273.871 484.603 C 274.461 484.909,275.091 485.068,275.271 484.956 C 275.452 484.844,275.600 484.954,275.600 485.200 C 275.600 485.446,275.765 485.545,275.966 485.421 C 276.167 485.297,276.392 485.360,276.466 485.561 C 276.540 485.763,277.140 486.029,277.800 486.152 C 280.921 486.734,282.800 487.299,282.800 487.656 C 282.800 487.871,282.968 487.944,283.172 487.817 C 283.377 487.691,283.660 487.773,283.800 488.000 C 283.940 488.227,284.183 488.334,284.338 488.238 C 284.494 488.142,285.696 488.334,287.010 488.665 C 288.325 488.996,289.736 489.261,290.147 489.255 C 290.557 489.248,291.277 489.475,291.747 489.758 C 292.216 490.041,293.789 490.307,295.242 490.348 C 296.695 490.389,298.432 490.580,299.102 490.772 C 299.771 490.964,300.472 490.978,300.660 490.803 C 300.847 490.628,302.755 490.680,304.900 490.919 C 307.692 491.230,309.908 491.231,312.700 490.923 C 314.944 490.675,316.786 490.641,317.037 490.843 C 317.277 491.035,317.571 491.095,317.691 490.976 C 317.810 490.856,318.964 490.666,320.254 490.552 C 325.122 490.123,325.686 490.027,326.300 489.520 C 326.817 489.093,326.962 489.094,327.107 489.524 C 327.244 489.934,327.441 489.906,328.000 489.400 C 328.405 489.034,329.435 488.741,330.364 488.728 C 331.270 488.716,332.109 488.547,332.229 488.353 C 332.349 488.159,332.887 488.000,333.424 488.000 C 333.961 488.000,334.400 487.820,334.400 487.600 C 334.400 487.380,334.591 487.200,334.824 487.200 C 335.057 487.200,335.136 487.380,335.000 487.600 C 334.864 487.820,334.924 488.000,335.134 488.000 C 335.343 488.000,335.608 487.757,335.722 487.459 C 335.836 487.161,336.988 486.710,338.281 486.455 C 339.574 486.201,341.060 485.693,341.583 485.327 C 342.296 484.827,342.459 484.803,342.237 485.231 C 342.074 485.544,342.208 485.473,342.534 485.073 C 342.860 484.674,343.279 484.351,343.464 484.356 C 344.300 484.379,345.608 483.872,346.033 483.361 C 346.289 483.052,346.994 482.800,347.600 482.800 C 348.206 482.800,348.917 482.541,349.180 482.224 C 349.443 481.907,349.897 481.739,350.188 481.851 C 350.479 481.962,350.961 481.706,351.258 481.281 C 351.556 480.855,351.890 480.490,352.000 480.468 C 353.160 480.237,354.755 479.451,354.593 479.189 C 354.480 479.006,355.020 478.627,355.794 478.348 C 356.567 478.068,357.200 477.700,357.200 477.530 C 357.200 477.360,357.785 476.922,358.500 476.556 C 359.215 476.191,359.944 475.646,360.120 475.346 C 360.296 475.046,360.679 474.800,360.971 474.800 C 361.263 474.800,361.726 474.530,362.000 474.200 C 362.274 473.870,362.866 473.600,363.316 473.600 C 363.765 473.600,364.015 473.482,363.870 473.337 C 363.454 472.920,364.419 472.000,365.273 472.000 C 365.699 472.000,365.935 471.818,365.798 471.596 C 365.660 471.374,366.099 470.879,366.772 470.496 C 367.444 470.113,367.996 469.665,367.997 469.500 C 367.999 469.335,368.230 469.200,368.512 469.200 C 368.793 469.200,369.288 468.825,369.612 468.367 C 370.407 467.241,372.353 465.200,372.632 465.200 C 372.918 465.200,374.000 464.128,374.000 463.845 C 374.000 463.445,377.168 460.400,377.584 460.400 C 377.813 460.400,378.000 460.207,378.000 459.971 C 378.000 459.458,378.707 458.717,379.800 458.086 C 380.240 457.832,380.366 457.619,380.079 457.612 C 379.790 457.605,380.024 457.169,380.606 456.629 C 381.183 456.095,381.642 455.555,381.627 455.429 C 381.612 455.303,381.701 455.206,381.825 455.213 C 381.948 455.220,382.502 454.374,383.056 453.333 C 383.610 452.291,384.436 451.115,384.893 450.720 C 385.349 450.324,385.599 450.000,385.447 450.000 C 385.296 450.000,385.367 449.635,385.606 449.189 C 385.845 448.743,386.211 448.483,386.420 448.612 C 386.629 448.742,386.800 448.575,386.800 448.242 C 386.800 447.294,387.680 445.602,388.054 445.833 C 388.239 445.948,388.284 445.762,388.153 445.421 C 388.022 445.079,388.106 444.800,388.341 444.800 C 388.576 444.800,388.986 444.073,389.252 443.183 C 389.593 442.047,389.908 441.633,390.313 441.788 C 390.705 441.938,390.815 441.816,390.657 441.405 C 390.529 441.072,390.619 440.800,390.855 440.800 C 391.092 440.800,391.178 440.521,391.047 440.179 C 390.916 439.838,390.965 439.655,391.155 439.772 C 391.345 439.889,391.615 439.269,391.755 438.393 C 391.895 437.517,392.202 436.800,392.438 436.800 C 392.674 436.800,392.791 436.575,392.698 436.300 C 392.606 436.025,392.779 435.617,393.083 435.392 C 393.387 435.168,393.666 434.588,393.702 434.103 C 393.739 433.618,393.978 433.140,394.234 433.042 C 394.490 432.944,394.828 431.994,394.985 430.932 C 395.143 429.869,395.570 428.654,395.936 428.231 C 396.301 427.808,396.377 427.593,396.105 427.752 C 395.770 427.948,395.686 427.840,395.847 427.421 C 395.978 427.079,396.228 426.800,396.403 426.800 C 396.577 426.800,396.720 426.182,396.720 425.427 C 396.720 424.671,396.832 423.872,396.968 423.651 C 397.105 423.430,397.322 422.473,397.450 421.525 C 397.579 420.576,397.980 419.454,398.342 419.031 C 398.704 418.608,398.786 418.387,398.524 418.540 C 398.216 418.719,398.070 418.532,398.109 418.009 C 398.143 417.564,398.333 417.200,398.532 417.200 C 398.731 417.200,398.807 416.750,398.702 416.200 C 398.597 415.650,398.677 415.200,398.879 415.200 C 399.082 415.200,399.170 415.065,399.075 414.900 C 398.981 414.735,399.073 413.430,399.280 412.000 C 399.772 408.595,399.972 391.743,399.539 390.206 C 399.353 389.549,399.165 387.770,399.119 386.252 C 399.073 384.735,398.831 383.289,398.581 383.038 C 398.331 382.788,398.175 382.249,398.235 381.841 C 398.295 381.433,398.187 380.807,397.995 380.450 C 397.489 379.508,396.367 373.976,396.604 373.593 C 396.715 373.414,396.590 373.197,396.327 373.109 C 395.904 372.968,394.846 369.608,394.718 368.000 C 394.691 367.670,394.384 367.162,394.035 366.870 C 393.686 366.579,393.629 366.457,393.910 366.600 C 394.206 366.751,394.080 366.254,393.610 365.418 C 393.164 364.625,392.800 363.701,392.800 363.364 C 392.800 362.999,392.611 362.869,392.332 363.042 C 392.021 363.234,391.946 363.116,392.110 362.691 C 392.245 362.340,392.175 361.992,391.956 361.919 C 391.736 361.845,391.509 361.519,391.451 361.193 C 391.036 358.862,390.673 357.963,390.215 358.139 C 389.896 358.261,389.532 357.751,389.237 356.767 C 388.979 355.905,388.576 355.200,388.341 355.200 C 388.106 355.200,388.022 354.921,388.153 354.579 C 388.284 354.238,388.222 354.063,388.015 354.191 C 387.808 354.319,387.424 353.704,387.160 352.825 C 386.897 351.945,386.530 351.320,386.344 351.434 C 386.159 351.549,385.702 351.003,385.330 350.221 C 384.957 349.440,384.510 348.800,384.336 348.800 C 384.162 348.800,383.651 347.990,383.200 347.000 C 382.749 346.010,382.205 345.200,381.990 345.200 C 381.776 345.200,381.600 344.930,381.600 344.600 C 381.600 344.270,381.420 344.000,381.200 344.000 C 380.980 344.000,380.800 343.730,380.800 343.400 C 380.800 343.070,380.526 342.800,380.190 342.800 C 379.855 342.800,379.409 342.350,379.200 341.800 C 378.991 341.250,378.635 340.800,378.410 340.800 C 378.184 340.800,378.000 340.530,378.000 340.200 C 378.000 339.870,377.819 339.600,377.599 339.600 C 377.081 339.600,368.800 331.268,368.800 330.747 C 368.800 330.530,368.620 330.464,368.400 330.600 C 368.180 330.736,368.000 330.695,368.000 330.510 C 368.000 330.324,367.457 329.852,366.793 329.459 C 366.129 329.067,365.690 328.578,365.817 328.373 C 365.943 328.168,365.699 328.000,365.273 328.000 C 364.847 328.000,364.274 327.730,364.000 327.400 C 363.726 327.070,363.659 326.798,363.851 326.795 C 364.043 326.793,363.255 326.336,362.100 325.780 C 360.945 325.224,360.000 324.608,360.000 324.411 C 360.000 324.215,359.637 323.939,359.193 323.798 C 358.749 323.657,357.808 323.015,357.103 322.371 C 356.398 321.727,355.491 321.200,355.087 321.200 C 354.683 321.200,354.444 321.053,354.555 320.873 C 354.666 320.693,354.092 320.306,353.279 320.013 C 352.465 319.720,351.565 319.147,351.277 318.740 C 350.990 318.333,350.415 318.000,350.001 318.000 C 349.586 318.000,349.128 317.808,348.983 317.573 C 348.838 317.338,348.460 317.245,348.144 317.366 C 347.828 317.487,347.461 317.304,347.329 316.960 C 347.135 316.454,347.023 316.436,346.750 316.866 C 346.527 317.218,346.410 317.240,346.406 316.931 C 346.401 316.518,344.361 315.608,342.866 315.352 C 342.573 315.302,342.123 315.003,341.866 314.687 C 341.610 314.371,339.870 313.794,338.000 313.405 C 336.130 313.016,334.505 312.550,334.390 312.370 C 334.209 312.089,333.358 311.863,330.868 311.435 C 330.575 311.385,330.173 311.086,329.974 310.772 C 329.722 310.373,329.610 310.351,329.606 310.700 C 329.603 310.975,329.330 311.200,329.000 311.200 C 328.670 311.200,328.400 311.009,328.400 310.776 C 328.400 310.531,327.902 310.431,327.221 310.538 C 326.572 310.640,325.987 310.566,325.921 310.374 C 325.793 310.005,324.635 309.801,320.416 309.403 C 318.995 309.269,317.566 308.943,317.240 308.680 C 316.773 308.302,316.711 308.307,316.949 308.704 C 317.178 309.084,316.801 309.191,315.426 309.139 C 314.422 309.101,313.600 308.943,313.600 308.788 C 313.600 308.405,304.074 308.394,303.921 308.778 M103.439 331.494 C 103.348 331.585,103.032 331.697,102.737 331.742 C 102.160 331.831,100.680 332.963,99.654 334.100 C 99.306 334.485,98.813 334.800,98.557 334.800 C 98.301 334.800,97.792 335.430,97.427 336.200 C 97.061 336.970,96.522 337.600,96.228 337.600 C 95.934 337.600,95.594 337.978,95.474 338.440 C 95.353 338.902,95.069 339.166,94.842 339.026 C 94.616 338.886,94.057 339.504,93.600 340.400 C 93.102 341.377,92.591 341.918,92.323 341.752 C 92.073 341.598,91.987 341.656,92.129 341.885 C 92.422 342.358,91.062 343.728,90.679 343.345 C 90.538 343.204,90.257 343.523,90.056 344.053 C 89.501 345.514,87.048 348.283,86.478 348.093 C 86.201 348.000,86.012 348.077,86.057 348.262 C 86.203 348.859,85.088 350.800,84.600 350.800 C 84.341 350.800,83.919 351.260,83.663 351.823 C 83.406 352.385,83.037 352.747,82.842 352.626 C 82.647 352.506,82.195 353.024,81.837 353.779 C 81.479 354.533,80.829 355.264,80.393 355.402 C 79.957 355.541,79.600 355.916,79.600 356.237 C 79.600 357.154,77.612 357.742,76.508 357.151 C 75.965 356.860,75.759 356.549,76.007 356.396 C 76.239 356.252,75.716 355.813,74.845 355.420 C 73.818 354.957,73.336 354.512,73.473 354.153 C 73.613 353.789,73.394 353.600,72.830 353.600 C 72.360 353.600,71.872 353.331,71.746 353.002 C 71.619 352.674,71.355 352.504,71.158 352.626 C 70.961 352.748,70.800 352.567,70.800 352.224 C 70.800 351.869,70.459 351.600,70.009 351.600 C 69.574 351.600,68.924 351.150,68.563 350.600 C 68.203 350.050,67.731 349.600,67.516 349.600 C 67.300 349.600,66.558 349.197,65.867 348.705 C 64.270 347.568,60.135 347.459,59.531 348.537 C 59.327 348.902,58.895 349.200,58.570 349.200 C 58.246 349.200,57.816 349.631,57.616 350.158 C 57.416 350.685,57.042 351.186,56.785 351.272 C 56.233 351.456,55.899 356.800,56.439 356.800 C 56.638 356.800,56.800 356.969,56.800 357.176 C 56.800 357.678,60.768 361.800,61.251 361.800 C 61.459 361.800,61.758 361.984,61.915 362.209 C 62.072 362.434,62.701 362.937,63.313 363.327 C 63.925 363.716,64.319 364.207,64.189 364.418 C 64.059 364.628,64.250 364.800,64.613 364.800 C 65.293 364.800,67.588 366.386,66.954 366.418 C 66.759 366.427,67.275 366.792,68.100 367.227 C 68.925 367.663,69.600 368.115,69.600 368.233 C 69.600 368.351,69.420 368.336,69.200 368.200 C 68.980 368.064,68.800 368.129,68.800 368.345 C 68.800 368.560,69.315 368.850,69.945 368.988 C 70.575 369.126,71.447 369.636,71.883 370.120 C 72.319 370.604,73.054 371.258,73.517 371.573 C 73.979 371.888,74.249 372.321,74.116 372.536 C 73.974 372.766,74.228 372.834,74.737 372.700 C 75.278 372.559,75.600 372.660,75.600 372.971 C 75.600 373.512,75.730 373.543,78.432 373.656 C 79.439 373.698,80.486 373.594,80.758 373.426 C 81.030 373.258,81.346 373.213,81.459 373.326 C 81.698 373.565,85.635 369.800,85.648 369.320 C 85.666 368.686,86.917 367.624,87.353 367.874 C 87.599 368.014,87.668 367.983,87.507 367.805 C 87.346 367.627,87.862 366.743,88.653 365.841 C 92.588 361.351,94.729 358.973,96.020 357.652 C 96.801 356.853,97.848 355.615,98.347 354.900 C 98.846 354.185,99.508 353.600,99.817 353.600 C 100.126 353.600,100.676 353.015,101.039 352.300 C 101.401 351.585,102.477 350.190,103.429 349.200 C 106.600 345.902,107.504 344.838,107.304 344.637 C 107.195 344.528,107.576 344.321,108.150 344.177 C 108.724 344.033,109.095 343.754,108.974 343.557 C 108.852 343.361,108.907 343.200,109.094 343.200 C 109.282 343.200,109.770 342.390,110.178 341.400 C 110.587 340.410,111.118 339.597,111.360 339.594 C 111.661 339.590,111.655 339.495,111.339 339.294 C 111.085 339.132,110.828 338.280,110.766 337.400 C 110.634 335.503,107.200 330.037,107.200 331.723 C 107.200 331.806,106.391 331.750,105.403 331.600 C 104.414 331.450,103.531 331.402,103.439 331.494 M131.525 343.990 C 130.934 344.170,130.320 344.201,130.161 344.059 C 130.002 343.916,130.001 344.025,130.159 344.300 C 130.323 344.585,130.236 344.800,129.955 344.800 C 129.684 344.800,129.103 345.115,128.663 345.500 C 128.190 345.913,127.998 345.970,128.193 345.638 C 128.416 345.259,128.373 345.169,128.062 345.362 C 127.808 345.519,127.600 345.873,127.600 346.148 C 127.600 346.424,127.229 347.418,126.775 348.356 C 125.872 350.226,125.647 360.265,126.520 359.726 C 126.760 359.578,126.837 359.895,126.716 360.528 C 126.606 361.104,126.674 361.478,126.868 361.358 C 127.062 361.238,127.407 361.673,127.634 362.325 C 127.939 363.201,128.379 363.576,129.323 363.767 C 130.230 363.949,130.443 364.122,130.059 364.361 C 128.929 365.065,132.968 365.145,165.629 365.074 C 196.377 365.006,199.111 364.946,199.731 364.326 C 200.102 363.956,200.777 363.534,201.233 363.390 C 201.688 363.245,201.976 363.042,201.872 362.939 C 201.769 362.835,202.111 362.290,202.633 361.727 C 203.962 360.292,203.955 348.341,202.624 347.368 C 202.196 347.055,201.978 346.800,202.138 346.800 C 202.297 346.800,202.235 346.440,202.000 346.000 C 201.765 345.560,201.258 345.200,200.875 345.200 C 200.491 345.200,199.875 344.846,199.504 344.413 C 198.786 343.574,134.209 343.172,131.525 343.990 M361.000 358.335 C 361.220 358.469,361.580 358.603,361.800 358.632 C 362.782 358.762,364.000 359.324,364.000 359.647 C 364.000 359.841,364.135 359.979,364.300 359.953 C 365.094 359.827,365.623 360.040,365.403 360.395 C 365.268 360.613,365.408 360.695,365.712 360.578 C 366.346 360.335,369.600 363.666,369.600 364.558 C 369.600 364.874,369.782 365.194,370.004 365.268 C 370.226 365.342,370.485 365.800,370.578 366.286 C 370.672 366.773,371.058 367.824,371.437 368.622 C 371.919 369.636,371.993 370.157,371.686 370.347 C 371.374 370.540,371.361 371.136,371.639 372.377 C 371.856 373.343,371.902 374.419,371.740 374.767 C 371.578 375.115,371.413 375.580,371.373 375.800 C 371.158 376.991,370.157 378.800,369.712 378.800 C 369.431 378.800,369.178 378.980,369.150 379.200 C 369.123 379.420,369.078 379.795,369.050 380.032 C 369.023 380.270,368.685 380.695,368.300 380.976 C 367.915 381.258,367.600 381.672,367.600 381.896 C 367.600 382.430,364.519 385.600,364.000 385.600 C 363.780 385.600,363.600 385.875,363.600 386.211 C 363.600 387.128,361.211 389.579,360.561 389.330 C 360.070 389.141,359.802 389.802,359.939 390.858 C 359.957 391.000,359.123 391.912,358.086 392.885 C 357.049 393.858,355.709 395.366,355.109 396.235 C 354.509 397.105,353.474 398.138,352.809 398.531 C 352.144 398.924,351.600 399.434,351.600 399.665 C 351.600 400.338,349.183 403.200,348.615 403.200 C 348.330 403.200,347.883 403.716,347.622 404.347 C 347.360 404.979,346.501 406.104,345.713 406.847 C 344.925 407.591,344.408 407.975,344.564 407.700 C 344.720 407.425,344.750 407.200,344.632 407.200 C 344.513 407.200,344.069 407.875,343.645 408.700 C 343.220 409.525,342.289 410.740,341.575 411.400 C 340.861 412.060,340.405 412.375,340.562 412.100 C 340.719 411.825,340.748 411.600,340.627 411.600 C 340.506 411.600,340.079 412.275,339.679 413.100 C 339.278 413.925,338.743 414.557,338.490 414.505 C 338.236 414.452,338.121 414.649,338.233 414.941 C 338.349 415.245,337.831 415.884,337.021 416.436 C 336.242 416.966,335.604 417.554,335.603 417.742 C 335.597 418.447,333.077 421.238,332.609 421.059 C 332.333 420.953,331.891 421.459,331.590 422.226 C 331.298 422.971,330.433 424.170,329.669 424.890 C 328.905 425.611,328.408 425.975,328.564 425.700 C 328.720 425.425,328.657 425.200,328.424 425.200 C 328.191 425.200,328.000 425.579,328.000 426.043 C 328.000 426.536,327.086 427.786,325.800 429.052 C 324.590 430.243,323.600 431.363,323.600 431.542 C 323.600 431.954,320.770 434.800,320.360 434.800 C 320.192 434.800,319.928 435.205,319.774 435.700 C 319.620 436.195,318.636 437.500,317.588 438.600 C 311.853 444.615,309.947 446.479,309.457 446.551 C 309.157 446.594,308.629 446.914,308.282 447.261 C 307.478 448.065,303.559 449.361,303.241 448.928 C 303.108 448.747,302.460 448.600,301.800 448.600 C 301.140 448.600,300.492 448.747,300.359 448.928 C 300.069 449.323,296.000 448.052,296.000 447.567 C 296.000 447.379,295.730 447.329,295.400 447.455 C 295.070 447.582,294.800 447.498,294.800 447.270 C 294.800 447.041,294.437 446.739,293.994 446.598 C 293.551 446.457,293.292 446.175,293.418 445.971 C 293.544 445.767,293.457 445.600,293.224 445.600 C 292.133 445.600,290.308 444.073,290.679 443.472 C 290.829 443.229,290.674 443.163,290.296 443.308 C 289.878 443.468,289.254 443.076,288.470 442.158 C 287.678 441.231,287.209 440.937,287.071 441.282 C 286.938 441.613,286.852 441.548,286.832 441.100 C 286.814 440.715,286.575 440.445,286.300 440.500 C 286.025 440.555,285.827 440.273,285.860 439.873 C 285.901 439.384,285.727 439.219,285.330 439.371 C 284.718 439.606,283.400 438.565,283.400 437.847 C 283.400 437.621,282.950 437.322,282.400 437.183 C 281.850 437.043,281.445 436.720,281.500 436.465 C 281.555 436.209,281.375 436.045,281.100 436.100 C 280.825 436.155,280.643 435.981,280.695 435.714 C 280.752 435.426,280.538 435.326,280.170 435.467 C 279.539 435.709,278.097 434.138,278.319 433.451 C 278.382 433.259,278.151 433.210,277.807 433.342 C 277.158 433.591,275.308 432.076,275.513 431.462 C 275.574 431.277,275.406 431.198,275.138 431.287 C 274.529 431.490,273.090 430.101,273.396 429.606 C 273.520 429.406,273.257 429.312,272.811 429.398 C 272.312 429.494,272.000 429.341,272.000 429.001 C 272.000 428.696,271.792 428.319,271.538 428.162 C 271.234 427.974,271.176 428.069,271.369 428.438 C 271.529 428.747,271.292 428.581,270.842 428.069 C 270.363 427.525,269.823 427.262,269.543 427.435 C 269.217 427.637,269.145 427.521,269.318 427.070 C 269.457 426.707,269.443 426.436,269.286 426.468 C 268.706 426.587,267.612 425.905,267.826 425.558 C 267.948 425.361,267.758 425.200,267.405 425.200 C 267.052 425.200,266.322 424.758,265.782 424.218 C 265.242 423.678,264.800 423.316,264.800 423.414 C 264.800 423.512,264.449 423.292,264.020 422.925 C 263.592 422.558,263.350 422.082,263.482 421.867 C 263.616 421.650,263.518 421.604,263.262 421.762 C 263.008 421.919,262.800 421.862,262.800 421.636 C 262.800 421.410,262.575 421.310,262.300 421.413 C 262.025 421.516,261.357 420.949,260.816 420.153 C 260.275 419.356,259.768 418.895,259.691 419.127 C 259.613 419.362,259.199 419.199,258.760 418.760 C 258.326 418.326,258.078 417.797,258.209 417.585 C 258.340 417.373,258.194 417.200,257.886 417.200 C 257.162 417.200,255.909 415.825,256.287 415.446 C 256.446 415.288,256.282 415.270,255.924 415.408 C 255.440 415.593,255.140 415.290,254.756 414.229 C 254.472 413.443,254.085 412.800,253.896 412.800 C 253.707 412.800,253.655 412.635,253.779 412.434 C 253.903 412.233,253.779 411.993,253.502 411.901 C 252.638 411.613,252.813 402.730,253.700 401.843 C 254.085 401.458,254.400 400.875,254.400 400.548 C 254.400 400.207,254.593 400.072,254.852 400.232 C 255.128 400.403,255.227 400.295,255.106 399.956 C 254.837 399.200,255.500 398.000,256.187 398.000 C 256.495 398.000,256.861 397.638,257.001 397.196 C 257.232 396.468,259.600 394.849,259.600 395.418 C 259.600 395.550,259.885 395.373,260.232 395.025 C 260.580 394.677,261.030 394.495,261.232 394.620 C 261.435 394.745,261.600 394.637,261.600 394.381 C 261.600 394.124,261.878 394.021,262.221 394.153 C 262.562 394.284,262.749 394.241,262.636 394.058 C 262.271 393.467,265.230 392.788,266.112 393.260 C 266.664 393.555,267.178 393.556,267.823 393.262 C 268.561 392.926,268.944 392.998,269.736 393.621 C 270.281 394.049,270.878 394.397,271.063 394.394 C 271.248 394.391,271.130 394.213,270.800 394.000 C 270.281 393.665,270.290 393.611,270.867 393.606 C 271.233 393.603,271.593 393.735,271.667 393.900 C 271.740 394.065,272.520 394.554,273.400 394.986 C 275.081 395.812,275.526 396.127,277.277 397.731 C 277.870 398.274,278.520 398.782,278.722 398.859 C 279.162 399.028,281.692 401.008,283.247 402.400 C 283.861 402.950,284.847 403.760,285.439 404.200 C 286.031 404.640,286.943 405.401,287.466 405.891 C 287.989 406.381,288.779 406.975,289.220 407.211 C 289.661 407.447,289.900 407.839,289.749 408.082 C 289.589 408.342,289.659 408.411,289.920 408.250 C 290.369 407.972,291.427 408.672,293.014 410.300 C 293.497 410.795,294.095 411.200,294.342 411.200 C 294.590 411.200,295.018 411.560,295.293 412.000 C 295.568 412.440,295.946 412.800,296.133 412.800 C 296.558 412.800,298.228 414.094,298.327 414.500 C 298.367 414.665,298.462 414.755,298.539 414.700 C 298.615 414.645,298.982 414.853,299.356 415.163 C 299.957 415.662,300.185 415.574,301.348 414.395 C 302.071 413.663,302.802 413.139,302.974 413.232 C 303.145 413.324,303.593 412.770,303.968 412.000 C 304.343 411.230,304.877 410.649,305.155 410.710 C 305.433 410.771,305.538 410.623,305.388 410.380 C 305.078 409.880,306.688 408.000,307.426 408.000 C 307.694 408.000,308.022 407.566,308.155 407.035 C 308.289 406.504,309.208 405.357,310.199 404.485 C 311.189 403.613,312.000 402.714,312.000 402.487 C 312.000 402.260,312.900 401.265,314.000 400.276 C 315.100 399.287,316.000 398.282,316.000 398.042 C 316.000 397.803,316.360 397.382,316.800 397.107 C 317.240 396.832,317.600 396.458,317.600 396.275 C 317.600 395.756,318.809 394.676,319.084 394.951 C 319.219 395.086,319.660 394.458,320.065 393.555 C 320.592 392.378,320.975 391.981,321.420 392.152 C 321.762 392.284,321.950 392.242,321.837 392.061 C 321.538 391.576,322.750 390.000,323.423 390.000 C 323.740 390.000,324.000 389.732,324.000 389.405 C 324.000 389.078,324.900 387.906,326.000 386.800 C 327.100 385.694,328.000 384.646,328.000 384.471 C 328.000 384.295,328.900 383.325,330.000 382.315 C 331.100 381.305,332.000 380.275,332.000 380.027 C 332.000 379.778,332.270 379.471,332.600 379.345 C 332.930 379.218,333.200 378.954,333.200 378.757 C 333.200 378.287,334.921 376.574,335.276 376.692 C 335.427 376.742,335.664 376.427,335.803 375.992 C 335.941 375.556,336.648 374.570,337.374 373.800 C 338.685 372.410,339.511 371.941,338.959 372.900 C 338.792 373.190,338.824 373.260,339.036 373.067 C 339.236 372.883,339.416 372.613,339.435 372.467 C 339.608 371.127,342.166 368.012,343.100 368.004 C 343.375 368.002,343.600 367.722,343.600 367.383 C 343.600 367.043,345.085 365.263,346.900 363.426 C 349.889 360.401,351.208 359.493,352.713 359.424 C 352.996 359.411,353.356 359.202,353.513 358.960 C 354.054 358.130,359.870 357.645,361.000 358.335 " stroke="none" fill="#445c9c" fill-rule="evenodd"></path><path id="path1" d="M155.674 14.827 C 147.553 16.426,145.163 27.510,151.841 32.604 C 156.922 36.479,165.513 34.050,167.170 28.270 C 167.434 27.352,167.809 26.088,168.004 25.462 C 168.207 24.811,168.210 24.041,168.010 23.662 C 167.818 23.298,167.449 22.166,167.191 21.146 C 166.762 19.449,165.884 18.262,163.605 16.293 C 163.155 15.904,161.762 15.319,160.509 14.993 C 158.005 14.341,158.125 14.345,155.674 14.827 " stroke="none" fill="#f2f2f2" fill-rule="evenodd"></path><path id="path2" d="M156.220 14.361 C 155.738 14.550,156.426 14.664,158.020 14.659 C 159.731 14.654,160.263 14.555,159.600 14.366 C 158.282 13.989,157.176 13.987,156.220 14.361 M163.200 15.986 C 163.200 16.198,163.605 16.584,164.100 16.844 C 164.995 17.314,164.996 17.312,164.238 16.458 C 163.391 15.505,163.200 15.418,163.200 15.986 M167.028 20.200 C 167.160 20.640,167.367 21.589,167.488 22.310 C 167.609 23.030,167.871 23.720,168.070 23.843 C 168.516 24.119,168.093 22.240,167.339 20.600 C 167.036 19.940,166.896 19.760,167.028 20.200 M167.784 25.900 C 167.656 26.505,167.483 27.341,167.398 27.758 C 167.314 28.174,167.391 28.354,167.570 28.158 C 167.919 27.774,168.462 24.800,168.182 24.800 C 168.090 24.800,167.911 25.295,167.784 25.900 M148.400 28.689 C 148.400 28.921,148.771 29.536,149.224 30.056 L 150.047 31.000 149.345 29.800 C 148.420 28.221,148.400 28.197,148.400 28.689 M150.144 31.509 C 150.460 32.021,152.800 33.753,152.800 33.475 C 152.800 33.376,152.139 32.791,151.332 32.175 C 150.524 31.559,149.989 31.259,150.144 31.509 M158.000 34.818 C 157.562 35.115,157.724 35.152,158.600 34.956 C 160.071 34.627,160.390 34.398,159.367 34.406 C 158.945 34.409,158.330 34.595,158.000 34.818 " stroke="none" fill="#c9ccdc" fill-rule="evenodd"></path><path id="path3" d="" stroke="none" fill="#8991ac" fill-rule="evenodd"></path><path id="path4" d="M164.000 16.125 C 164.000 16.194,164.585 16.779,165.300 17.425 L 166.600 18.600 165.425 17.300 C 164.330 16.088,164.000 15.816,164.000 16.125 " stroke="none" fill="#949cb4" fill-rule="evenodd"></path><path id="path5" d="M114.406 152.500 C 114.410 153.384,114.523 153.626,114.757 153.256 C 115.072 152.759,114.917 151.200,114.553 151.200 C 114.469 151.200,114.403 151.785,114.406 152.500 M310.188 404.700 L 309.485 405.800 310.542 404.830 C 311.686 403.782,311.790 403.600,311.246 403.600 C 311.051 403.600,310.575 404.095,310.188 404.700 M306.392 408.610 C 305.644 409.511,306.078 409.615,306.970 408.748 C 307.393 408.337,307.551 408.000,307.319 408.000 C 307.087 408.000,306.670 408.274,306.392 408.610 " stroke="none" fill="#546c9e" fill-rule="evenodd"></path><path id="path6" d="M168.501 24.600 C 168.505 25.480,168.587 25.793,168.683 25.295 C 168.779 24.798,168.775 24.078,168.675 23.695 C 168.575 23.313,168.496 23.720,168.501 24.600 " stroke="none" fill="#5c6ca4" fill-rule="evenodd"></path><path id="path7" d="M167.200 1.599 C 168.265 2.433,168.800 2.596,168.800 2.088 C 168.800 1.916,168.215 1.559,167.500 1.296 L 166.200 0.816 167.200 1.599 M173.590 5.582 C 173.831 6.032,174.202 6.400,174.414 6.400 C 175.069 6.400,174.842 5.819,173.976 5.278 C 173.215 4.803,173.186 4.826,173.590 5.582 M179.606 13.100 C 179.624 13.977,180.388 14.559,180.394 13.700 C 180.397 13.205,180.220 12.800,180.000 12.800 C 179.780 12.800,179.603 12.935,179.606 13.100 M182.212 21.717 C 182.041 22.112,182.013 22.547,182.151 22.684 C 182.557 23.090,182.884 22.520,182.697 21.731 C 182.532 21.033,182.510 21.032,182.212 21.717 M184.897 31.166 C 184.978 31.477,185.484 32.006,186.022 32.341 C 186.786 32.818,186.873 32.825,186.418 32.375 C 186.098 32.059,185.592 31.530,185.293 31.200 C 184.853 30.714,184.778 30.708,184.897 31.166 M223.668 49.000 C 223.662 49.440,223.811 50.160,224.000 50.600 C 224.438 51.619,224.438 50.568,224.000 49.200 C 223.743 48.396,223.677 48.357,223.668 49.000 M283.800 49.200 C 284.112 49.706,285.218 49.706,286.000 49.200 C 286.445 48.912,286.207 48.811,285.076 48.806 C 284.161 48.802,283.652 48.960,283.800 49.200 M9.783 54.309 C 8.295 55.567,7.563 56.737,8.862 55.781 C 9.446 55.352,10.122 54.685,10.365 54.300 C 10.913 53.432,10.818 53.434,9.783 54.309 M235.326 69.500 C 235.189 69.885,234.988 70.380,234.880 70.600 C 234.771 70.820,234.923 70.777,235.217 70.504 C 235.732 70.027,236.117 68.800,235.752 68.800 C 235.655 68.800,235.463 69.115,235.326 69.500 M108.400 77.200 C 107.946 77.493,108.122 77.589,109.124 77.594 C 109.905 77.597,110.346 77.436,110.200 77.200 C 109.889 76.697,109.178 76.697,108.400 77.200 M205.400 77.200 C 205.264 77.420,205.534 77.600,206.000 77.600 C 206.466 77.600,206.736 77.420,206.600 77.200 C 206.464 76.980,206.194 76.800,206.000 76.800 C 205.806 76.800,205.536 76.980,205.400 77.200 M85.200 78.600 C 85.200 78.930,85.492 79.200,85.849 79.200 C 86.380 79.200,86.408 79.091,86.000 78.600 C 85.726 78.270,85.434 78.000,85.351 78.000 C 85.268 78.000,85.200 78.270,85.200 78.600 M89.051 82.589 C 89.167 82.891,89.509 83.233,89.811 83.349 C 90.157 83.482,90.282 83.357,90.149 83.011 C 90.033 82.709,89.691 82.367,89.389 82.251 C 89.043 82.118,88.918 82.243,89.051 82.589 M222.800 84.800 C 222.315 85.114,222.372 85.189,223.100 85.194 C 223.595 85.197,224.000 85.020,224.000 84.800 C 224.000 84.299,223.576 84.299,222.800 84.800 M95.600 155.800 C 95.322 156.135,95.279 156.400,95.502 156.400 C 95.722 156.400,96.126 156.130,96.400 155.800 C 96.678 155.465,96.721 155.200,96.498 155.200 C 96.278 155.200,95.874 155.470,95.600 155.800 M109.771 159.906 C 109.218 160.285,108.668 161.729,109.202 161.398 C 109.577 161.167,110.553 159.593,110.314 159.606 C 110.251 159.609,110.007 159.744,109.771 159.906 M83.615 169.216 C 82.853 169.867,82.405 170.400,82.619 170.400 C 83.013 170.400,85.200 168.522,85.200 168.184 C 85.200 167.888,85.072 167.971,83.615 169.216 M102.003 168.797 C 101.494 169.239,101.240 169.594,101.439 169.587 C 101.987 169.568,103.371 168.437,103.135 168.202 C 103.021 168.088,102.512 168.356,102.003 168.797 M60.400 172.586 C 60.400 172.688,60.756 172.962,61.191 173.195 C 61.836 173.541,61.939 173.506,61.748 173.009 C 61.541 172.469,60.400 172.111,60.400 172.586 M93.500 178.032 C 92.748 178.470,92.552 179.200,93.186 179.200 C 93.398 179.200,93.765 178.840,94.000 178.400 C 94.487 177.490,94.462 177.472,93.500 178.032 M81.305 188.287 C 81.914 188.379,82.814 188.377,83.305 188.282 C 83.797 188.187,83.300 188.111,82.200 188.114 C 81.100 188.117,80.697 188.195,81.305 188.287 M108.643 213.369 C 108.764 213.682,109.122 214.038,109.440 214.160 C 109.904 214.338,109.935 214.226,109.595 213.591 C 109.113 212.690,108.311 212.503,108.643 213.369 M96.267 217.067 C 95.884 217.449,95.938 218.000,96.357 218.000 C 96.554 218.000,96.818 217.730,96.945 217.400 C 97.179 216.790,96.753 216.581,96.267 217.067 M92.629 221.429 C 91.849 222.209,91.830 222.440,92.569 222.157 C 92.882 222.036,93.236 221.682,93.357 221.369 C 93.640 220.630,93.409 220.649,92.629 221.429 M106.177 226.167 C 105.750 226.479,105.494 226.827,105.607 226.940 C 105.720 227.053,106.259 226.802,106.806 226.382 C 107.945 225.507,107.355 225.306,106.177 226.167 M83.992 231.010 C 83.714 231.345,83.566 231.700,83.664 231.798 C 83.762 231.896,84.146 231.621,84.517 231.188 C 84.889 230.755,85.036 230.400,84.845 230.400 C 84.654 230.400,84.270 230.674,83.992 231.010 M80.511 234.900 C 79.533 236.165,79.485 236.479,80.350 235.938 C 81.236 235.385,81.804 234.400,81.236 234.400 C 81.050 234.400,80.724 234.625,80.511 234.900 M126.040 240.100 C 126.163 241.640,126.725 242.543,126.664 241.101 C 126.629 240.276,126.465 239.601,126.300 239.601 C 126.135 239.600,126.018 239.825,126.040 240.100 M108.800 268.600 C 109.074 268.930,109.478 269.200,109.698 269.200 C 109.921 269.200,109.878 268.935,109.600 268.600 C 109.326 268.270,108.922 268.000,108.702 268.000 C 108.479 268.000,108.522 268.265,108.800 268.600 M110.680 270.936 C 110.567 271.231,110.635 271.726,110.831 272.036 C 111.091 272.447,111.189 272.301,111.194 271.500 C 111.201 270.306,111.004 270.090,110.680 270.936 M106.475 281.216 C 105.994 281.664,105.600 282.116,105.600 282.219 C 105.600 282.580,107.186 281.412,107.380 280.909 C 107.646 280.214,107.495 280.265,106.475 281.216 M88.243 281.433 C 88.093 281.823,88.182 282.006,88.475 281.908 C 89.073 281.709,89.402 280.800,88.876 280.800 C 88.661 280.800,88.376 281.085,88.243 281.433 M60.615 283.148 C 60.864 283.397,64.513 283.216,64.791 282.940 C 64.896 282.837,63.952 282.793,62.693 282.844 C 61.434 282.895,60.499 283.032,60.615 283.148 M126.446 284.467 C 126.421 284.834,126.296 285.464,126.170 285.867 C 125.952 286.562,125.963 286.563,126.397 285.887 C 126.648 285.496,126.773 284.866,126.673 284.487 C 126.511 283.868,126.488 283.866,126.446 284.467 M102.734 285.469 C 102.368 285.566,101.968 285.906,101.846 286.224 C 101.666 286.695,101.809 286.682,102.612 286.155 C 103.388 285.647,104.011 285.009,103.500 285.246 C 103.445 285.272,103.100 285.372,102.734 285.469 M69.055 286.600 C 69.182 286.930,69.558 287.200,69.892 287.200 C 70.385 287.200,70.405 287.088,70.000 286.600 C 69.726 286.270,69.350 286.000,69.164 286.000 C 68.977 286.000,68.929 286.270,69.055 286.600 M71.660 288.347 C 71.935 288.788,72.484 289.233,72.880 289.337 C 73.851 289.591,73.799 289.497,72.380 288.448 C 71.260 287.621,71.201 287.612,71.660 288.347 M97.798 290.802 C 97.398 291.244,97.166 291.699,97.282 291.815 C 97.397 291.930,97.790 291.569,98.155 291.012 C 98.952 289.796,98.793 289.702,97.798 290.802 M76.400 292.398 C 76.400 292.883,77.522 293.412,77.852 293.082 C 77.971 292.962,77.693 292.664,77.234 292.418 C 76.656 292.109,76.400 292.103,76.400 292.398 M126.244 297.000 C 126.573 298.471,126.802 298.790,126.794 297.767 C 126.791 297.345,126.605 296.730,126.382 296.400 C 126.085 295.962,126.048 296.124,126.244 297.000 M89.850 299.650 C 88.927 300.728,89.250 301.050,90.200 300.000 C 90.601 299.557,90.845 299.112,90.743 299.010 C 90.641 298.907,90.239 299.196,89.850 299.650 M85.970 304.300 L 85.000 305.400 86.200 304.400 C 86.860 303.850,87.475 303.355,87.567 303.300 C 87.658 303.245,87.555 303.200,87.336 303.200 C 87.118 303.200,86.503 303.695,85.970 304.300 M302.000 308.800 C 302.786 309.308,304.000 309.308,304.000 308.800 C 304.000 308.580,303.415 308.403,302.700 308.406 C 301.714 308.411,301.545 308.506,302.000 308.800 M313.600 308.775 C 313.600 308.981,313.960 309.123,314.400 309.090 C 314.840 309.057,315.200 308.888,315.200 308.715 C 315.200 308.542,314.840 308.400,314.400 308.400 C 313.960 308.400,313.600 308.569,313.600 308.775 M246.062 333.036 C 244.549 334.644,244.582 335.381,246.099 333.864 C 246.911 333.052,247.817 331.580,247.487 331.607 C 247.439 331.611,246.798 332.254,246.062 333.036 M370.000 332.258 C 370.000 332.590,376.510 338.824,376.679 338.654 C 376.833 338.501,370.512 332.000,370.210 332.000 C 370.095 332.000,370.000 332.116,370.000 332.258 M108.400 332.786 C 108.400 332.998,108.805 333.384,109.300 333.644 C 110.195 334.114,110.196 334.112,109.438 333.258 C 108.591 332.305,108.400 332.218,108.400 332.786 M110.680 335.736 C 110.567 336.031,110.635 336.526,110.831 336.836 C 111.091 337.247,111.189 337.101,111.194 336.300 C 111.201 335.106,111.004 334.890,110.680 335.736 M242.433 336.769 C 241.535 337.631,240.800 338.450,240.800 338.587 C 240.800 338.995,243.931 336.356,244.163 335.753 C 244.490 334.901,244.199 335.072,242.433 336.769 M87.956 346.500 C 87.486 347.395,87.488 347.396,88.342 346.638 C 89.295 345.791,89.382 345.600,88.814 345.600 C 88.602 345.600,88.216 346.005,87.956 346.500 M106.111 346.100 C 105.430 346.981,105.117 347.830,105.770 347.024 C 106.117 346.597,106.625 346.104,106.900 345.930 C 107.227 345.722,107.244 345.610,106.949 345.606 C 106.701 345.603,106.324 345.825,106.111 346.100 M126.446 347.667 C 126.421 348.034,126.296 348.664,126.170 349.067 C 125.952 349.762,125.963 349.763,126.397 349.087 C 126.648 348.696,126.773 348.066,126.673 347.687 C 126.511 347.068,126.488 347.066,126.446 347.667 M84.667 349.867 C 84.284 350.249,84.338 350.800,84.757 350.800 C 84.954 350.800,85.218 350.530,85.345 350.200 C 85.579 349.590,85.153 349.381,84.667 349.867 M102.495 350.266 C 102.218 350.378,101.788 350.859,101.541 351.335 C 101.120 352.145,101.159 352.138,102.146 351.230 C 102.726 350.697,103.200 350.202,103.200 350.130 C 103.200 349.984,103.193 349.985,102.495 350.266 M80.562 354.858 C 79.804 355.712,79.805 355.714,80.700 355.244 C 81.195 354.984,81.600 354.598,81.600 354.386 C 81.600 353.818,81.409 353.905,80.562 354.858 M98.040 355.300 L 97.487 356.200 98.443 355.404 C 98.970 354.967,99.475 354.562,99.567 354.504 C 99.658 354.447,99.477 354.400,99.163 354.400 C 98.849 354.400,98.344 354.805,98.040 355.300 M227.043 358.233 C 226.667 359.211,226.749 359.308,227.400 358.657 C 228.080 357.977,228.167 357.600,227.643 357.600 C 227.446 357.600,227.176 357.885,227.043 358.233 M354.400 358.400 C 353.934 358.701,354.051 358.789,354.924 358.794 C 355.572 358.797,355.943 358.631,355.800 358.400 C 355.493 357.903,355.169 357.903,354.400 358.400 M357.164 358.431 C 356.753 358.691,356.899 358.789,357.700 358.794 C 358.894 358.801,359.110 358.604,358.264 358.280 C 357.969 358.167,357.474 358.235,357.164 358.431 M93.798 360.002 C 93.398 360.444,93.166 360.899,93.282 361.015 C 93.397 361.130,93.790 360.769,94.155 360.212 C 94.952 358.996,94.793 358.902,93.798 360.002 M90.111 364.100 C 89.329 365.111,89.063 365.732,89.536 365.440 C 90.010 365.147,90.957 363.600,90.663 363.600 C 90.572 363.600,90.324 363.825,90.111 364.100 M344.511 365.700 C 343.552 366.940,343.564 367.315,344.535 366.430 C 345.121 365.897,345.600 365.402,345.600 365.330 C 345.600 365.000,344.858 365.252,344.511 365.700 M340.480 370.080 C 339.902 370.658,339.856 371.200,340.386 371.200 C 340.598 371.200,340.965 370.840,341.200 370.400 C 341.672 369.519,341.235 369.325,340.480 370.080 M336.384 374.830 C 335.977 375.590,336.010 375.623,336.770 375.216 C 337.623 374.759,337.901 374.000,337.214 374.000 C 337.002 374.000,336.628 374.374,336.384 374.830 M328.392 383.810 C 327.644 384.711,328.078 384.815,328.970 383.948 C 329.393 383.537,329.551 383.200,329.319 383.200 C 329.087 383.200,328.670 383.474,328.392 383.810 M362.706 386.972 C 362.324 387.251,362.121 387.588,362.254 387.721 C 362.387 387.853,362.765 387.692,363.095 387.362 C 363.872 386.585,363.603 386.316,362.706 386.972 M324.629 388.229 C 323.849 389.009,323.830 389.240,324.569 388.957 C 324.882 388.836,325.236 388.482,325.357 388.169 C 325.640 387.430,325.409 387.449,324.629 388.229 M358.629 391.409 C 358.205 391.729,357.985 392.119,358.140 392.274 C 358.295 392.429,358.817 392.161,359.300 391.678 C 360.283 390.695,359.819 390.509,358.629 391.409 M320.384 392.830 C 319.977 393.590,320.010 393.623,320.770 393.216 C 321.623 392.759,321.901 392.000,321.214 392.000 C 321.002 392.000,320.628 392.374,320.384 392.830 M217.200 394.800 C 217.200 395.530,217.366 395.945,217.600 395.800 C 217.820 395.664,218.000 395.214,218.000 394.800 C 218.000 394.386,217.820 393.936,217.600 393.800 C 217.366 393.655,217.200 394.070,217.200 394.800 M271.206 393.910 C 271.200 394.414,273.148 395.386,273.486 395.048 C 273.582 394.952,273.242 394.742,272.730 394.583 C 272.219 394.423,271.668 394.091,271.506 393.846 C 271.301 393.535,271.210 393.554,271.206 393.910 M354.835 395.846 C 354.335 396.421,354.152 396.816,354.429 396.724 C 354.914 396.562,356.280 394.800,355.921 394.800 C 355.824 394.800,355.335 395.271,354.835 395.846 M316.392 397.410 C 315.644 398.311,316.078 398.415,316.970 397.548 C 317.393 397.137,317.551 396.800,317.319 396.800 C 317.087 396.800,316.670 397.074,316.392 397.410 M350.400 400.732 C 349.494 401.615,349.483 401.664,350.278 401.251 C 350.760 401.001,351.273 400.605,351.418 400.371 C 351.910 399.575,351.402 399.755,350.400 400.732 M312.392 401.810 C 311.619 402.741,312.171 402.917,312.998 402.002 C 313.397 401.561,313.538 401.200,313.311 401.200 C 313.084 401.200,312.670 401.474,312.392 401.810 M217.206 404.924 C 217.202 405.839,217.360 406.348,217.600 406.200 C 218.106 405.888,218.106 404.782,217.600 404.000 C 217.312 403.555,217.211 403.793,217.206 404.924 M346.676 404.974 C 346.247 405.299,346.117 405.625,346.356 405.773 C 346.578 405.910,346.955 405.657,347.194 405.211 C 347.701 404.263,347.647 404.238,346.676 404.974 M308.384 406.430 C 307.977 407.190,308.010 407.223,308.770 406.816 C 309.623 406.359,309.901 405.600,309.214 405.600 C 309.002 405.600,308.628 405.974,308.384 406.430 M342.700 409.357 C 342.315 409.649,342.000 409.998,342.000 410.132 C 342.000 410.582,343.136 409.944,343.357 409.369 C 343.620 408.683,343.589 408.682,342.700 409.357 M304.600 410.800 C 304.202 411.240,303.966 411.600,304.077 411.600 C 304.187 411.600,304.693 411.240,305.200 410.800 C 305.707 410.360,305.943 410.000,305.723 410.000 C 305.504 410.000,304.998 410.360,304.600 410.800 M261.478 420.777 C 261.596 421.230,261.852 421.600,262.047 421.600 C 262.586 421.600,262.468 420.954,261.831 420.426 C 261.365 420.039,261.302 420.102,261.478 420.777 M330.400 423.200 C 330.083 423.396,329.956 423.689,330.118 423.852 C 330.281 424.014,330.623 423.937,330.880 423.680 C 331.484 423.076,331.147 422.738,330.400 423.200 M326.875 427.216 C 326.394 427.664,326.000 428.120,326.000 428.230 C 326.000 428.652,327.519 427.589,327.740 427.011 C 328.048 426.210,327.924 426.239,326.875 427.216 M322.200 432.477 L 321.000 433.708 322.300 432.827 C 323.015 432.342,323.600 431.778,323.600 431.573 C 323.600 431.058,323.555 431.087,322.200 432.477 M7.200 433.504 C 7.200 433.671,7.571 434.039,8.024 434.322 C 8.785 434.797,8.814 434.774,8.410 434.018 C 7.985 433.224,7.200 432.890,7.200 433.504 M279.200 435.000 C 279.200 435.330,279.492 435.600,279.849 435.600 C 280.380 435.600,280.408 435.491,280.000 435.000 C 279.726 434.670,279.434 434.400,279.351 434.400 C 279.268 434.400,279.200 434.670,279.200 435.000 M318.700 436.432 C 317.948 436.870,317.752 437.600,318.386 437.600 C 318.598 437.600,318.965 437.240,319.200 436.800 C 319.687 435.890,319.662 435.872,318.700 436.432 M314.700 440.832 C 313.948 441.270,313.752 442.000,314.386 442.000 C 314.598 442.000,314.965 441.640,315.200 441.200 C 315.687 440.290,315.662 440.272,314.700 440.832 M21.600 441.591 C 21.600 441.765,22.045 441.992,22.588 442.096 C 23.131 442.199,23.494 442.152,23.394 441.990 C 23.128 441.560,21.600 441.220,21.600 441.591 M24.600 442.000 C 24.464 442.220,24.723 442.400,25.176 442.400 C 25.629 442.400,26.000 442.220,26.000 442.000 C 26.000 441.780,25.741 441.600,25.424 441.600 C 25.107 441.600,24.736 441.780,24.600 442.000 M234.492 453.675 C 234.691 454.273,235.600 454.602,235.600 454.076 C 235.600 453.861,235.315 453.576,234.967 453.443 C 234.577 453.293,234.394 453.382,234.492 453.675 M240.800 461.396 C 240.800 461.523,241.430 462.257,242.200 463.027 C 242.970 463.797,243.600 464.196,243.600 463.913 C 243.600 463.631,242.970 462.897,242.200 462.283 C 241.430 461.669,240.800 461.270,240.800 461.396 M375.092 462.474 C 374.483 463.158,374.073 463.807,374.182 463.915 C 374.406 464.139,375.966 462.375,375.987 461.876 C 375.994 461.698,376.208 461.681,376.462 461.838 C 376.748 462.015,376.815 461.948,376.638 461.662 C 376.277 461.078,376.389 461.019,375.092 462.474 M244.400 465.009 C 245.349 466.229,247.600 468.453,247.600 468.171 C 247.600 467.761,245.564 465.454,244.643 464.819 C 243.842 464.267,243.830 464.277,244.400 465.009 M371.096 466.498 C 370.489 467.173,370.062 467.795,370.147 467.881 C 370.306 468.039,372.800 465.677,372.800 465.369 C 372.800 464.921,372.095 465.388,371.096 466.498 M366.629 470.629 C 365.936 471.321,365.843 471.600,366.304 471.600 C 366.471 471.600,366.832 471.240,367.107 470.800 C 367.706 469.841,367.493 469.764,366.629 470.629 M266.400 481.153 C 266.400 481.348,266.760 481.601,267.200 481.716 C 268.145 481.963,268.286 481.395,267.367 481.043 C 266.528 480.721,266.400 480.735,266.400 481.153 M303.300 491.076 C 303.685 491.176,304.315 491.176,304.700 491.076 C 305.085 490.975,304.770 490.893,304.000 490.893 C 303.230 490.893,302.915 490.975,303.300 491.076 M312.900 491.076 C 313.285 491.176,313.915 491.176,314.300 491.076 C 314.685 490.975,314.370 490.893,313.600 490.893 C 312.830 490.893,312.515 490.975,312.900 491.076 " stroke="none" fill="#445c94" fill-rule="evenodd"></path><path id="path8" d="M77.200 59.776 C 77.200 60.093,77.380 60.464,77.600 60.600 C 77.820 60.736,78.000 60.477,78.000 60.024 C 78.000 59.571,77.820 59.200,77.600 59.200 C 77.380 59.200,77.200 59.459,77.200 59.776 M98.860 172.242 C 98.562 172.578,98.399 172.932,98.495 173.029 C 98.592 173.126,98.998 172.844,99.398 172.402 C 99.797 171.961,99.961 171.607,99.762 171.615 C 99.563 171.624,99.157 171.905,98.860 172.242 M99.556 213.700 C 99.086 214.595,99.088 214.596,99.942 213.838 C 100.895 212.991,100.982 212.800,100.414 212.800 C 100.202 212.800,99.816 213.205,99.556 213.700 M110.806 217.876 C 110.809 218.274,110.987 218.870,111.200 219.200 C 111.503 219.669,111.589 219.566,111.594 218.724 C 111.597 218.132,111.420 217.536,111.200 217.400 C 110.980 217.264,110.803 217.478,110.806 217.876 M95.402 238.398 C 95.003 238.839,94.862 239.200,95.089 239.200 C 95.592 239.200,96.590 238.057,96.321 237.788 C 96.215 237.682,95.802 237.956,95.402 238.398 M87.377 247.367 C 86.950 247.679,86.707 248.040,86.836 248.170 C 86.966 248.299,87.398 248.044,87.798 247.602 C 88.648 246.663,88.473 246.566,87.377 247.367 M77.600 254.006 C 77.600 254.230,78.128 254.373,78.772 254.323 C 79.417 254.274,79.856 254.091,79.749 253.917 C 79.462 253.452,77.600 253.530,77.600 254.006 M99.556 268.900 C 99.086 269.795,99.088 269.796,99.942 269.038 C 100.895 268.191,100.982 268.000,100.414 268.000 C 100.202 268.000,99.816 268.405,99.556 268.900 M110.933 273.618 C 110.933 274.268,111.083 274.800,111.267 274.800 C 111.450 274.800,111.600 274.361,111.600 273.824 C 111.600 273.287,111.450 272.755,111.267 272.641 C 111.083 272.528,110.933 272.967,110.933 273.618 M301.554 288.045 C 301.174 288.291,301.403 288.377,302.283 288.318 C 302.988 288.271,303.478 288.145,303.371 288.038 C 303.013 287.680,302.112 287.683,301.554 288.045 M91.200 298.200 C 90.922 298.535,90.879 298.800,91.102 298.800 C 91.322 298.800,91.726 298.530,92.000 298.200 C 92.278 297.865,92.321 297.600,92.098 297.600 C 91.878 297.600,91.474 297.870,91.200 298.200 M77.800 309.200 C 77.936 309.420,78.397 309.600,78.824 309.600 C 79.251 309.600,79.600 309.420,79.600 309.200 C 79.600 308.980,79.139 308.800,78.576 308.800 C 77.996 308.800,77.660 308.973,77.800 309.200 M99.200 333.800 C 98.683 334.350,98.427 334.797,98.630 334.793 C 99.120 334.784,100.993 332.800,100.512 332.800 C 100.307 332.800,99.717 333.250,99.200 333.800 M110.800 338.200 C 110.800 338.750,110.980 339.200,111.200 339.200 C 111.420 339.200,111.600 338.750,111.600 338.200 C 111.600 337.650,111.420 337.200,111.200 337.200 C 110.980 337.200,110.800 337.650,110.800 338.200 M87.170 367.453 C 86.245 368.456,86.241 368.480,87.092 367.961 C 87.583 367.662,88.072 367.188,88.180 366.909 C 88.466 366.162,88.252 366.277,87.170 367.453 M78.100 373.876 C 78.485 373.976,79.115 373.976,79.500 373.876 C 79.885 373.775,79.570 373.693,78.800 373.693 C 78.030 373.693,77.715 373.775,78.100 373.876 M353.417 397.172 C 353.144 397.614,353.775 398.092,354.144 397.722 C 354.525 397.342,354.454 396.800,354.024 396.800 C 353.817 396.800,353.544 396.968,353.417 397.172 M349.406 402.288 L 348.704 403.400 349.630 402.511 C 350.139 402.022,350.455 401.522,350.332 401.399 C 350.209 401.276,349.792 401.676,349.406 402.288 M333.326 420.229 C 332.850 420.763,332.599 421.200,332.768 421.200 C 333.177 421.200,334.575 419.642,334.360 419.426 C 334.267 419.333,333.801 419.695,333.326 420.229 " stroke="none" fill="#54649b" fill-rule="evenodd"></path></g></svg>